<?xml version="1.0" encoding="utf-8"?>
<svg version="1.1" xmlns:xlink="http://www.w3.org/1999/xlink" width="6px" height="6px" xmlns="http://www.w3.org/2000/svg">
  <defs>
    <mask fill="white" id="clip261">
      <path d="M 3 0  C 4.656854271888733 0  6 1.3431457281112669  6 3  C 6 4.656854271888734  4.656854271888733 6  3 6  C 1.343145728111267 6  0 4.656854271888734  0 3  C 0 1.3431457281112669  1.343145728111267 0  3 0  Z " fill-rule="evenodd" />
    </mask>
  </defs>
  <g transform="matrix(1 0 0 1 -306 -84 )">
    <path d="M 3 0  C 4.656854271888733 0  6 1.3431457281112669  6 3  C 6 4.656854271888734  4.656854271888733 6  3 6  C 1.343145728111267 6  0 4.656854271888734  0 3  C 0 1.3431457281112669  1.343145728111267 0  3 0  Z " fill-rule="nonzero" fill="#21ccff" stroke="none" transform="matrix(1 0 0 1 306 84 )" />
    <path d="M 3 0  C 4.656854271888733 0  6 1.3431457281112669  6 3  C 6 4.656854271888734  4.656854271888733 6  3 6  C 1.343145728111267 6  0 4.656854271888734  0 3  C 0 1.3431457281112669  1.343145728111267 0  3 0  Z " stroke-width="4" stroke="#d9f6ff" fill="none" transform="matrix(1 0 0 1 306 84 )" mask="url(#clip261)" />
  </g>
</svg>