<?xml version="1.0" encoding="utf-8"?>
<svg version="1.1" xmlns:xlink="http://www.w3.org/1999/xlink" width="854px" height="8px" xmlns="http://www.w3.org/2000/svg">
  <g transform="matrix(1 0 0 1 -548 -1182 )">
    <path d="M 0 8  C 0 8  0 5.5600203617517625  0 5.5600203617517625  C 0 5.5600203617517625  149.14722442626953 2.0109619064784554  214.73768615722656 2.0109619064784554  C 280.3281478881836 2.0109619064784554  407.8159523010254 3.4897453931070905  451.7536315917969 3.711561488345319  C 495.6913108825684 3.9333775835835474  602.1318588256836 0.6431047037416349  643.5941772460938 0.19944448209101964  C 674.1641139984131 -1.2353554143304444  785.5 5.558336744811642  793 5.069726890785655  C 799.5 5.5588439256824005  835.6149063110352 4.324421850483638  854 4.092681366063033  C 854 7.014197571400029  854 4.09268183179386  854 8  C 854 8  0 8  0 8  Z " fill-rule="nonzero" fill="#ffffff" stroke="none" transform="matrix(1 0 0 1 548 1182 )" />
  </g>
</svg>