<?xml version="1.0" encoding="utf-8"?>
<svg version="1.1" xmlns:xlink="http://www.w3.org/1999/xlink" width="29px" height="24px" xmlns="http://www.w3.org/2000/svg">
  <defs>
    <mask fill="white" id="clip251">
      <path d="M 8.69999942410864 24  C 8.69999942410864 24  0 21.51282148051777  0 21.51282148051777  C 3.0011452873949427 11.285438870282851  11.301094339212986 3.4140949712219184  21.774909220987123 0.8658180794789516  C 24.138990287691495 0.29059299238832415  26.564966238203493 0  29 0  C 29 0  29 8.941322842717668  29 8.941322842717668  C 21.44882897456387 8.941322842717668  14.472826086237017 12.917230703589315  10.697240573518954 19.372865369677825  C 9.84429945703705 20.83030082723661  9.174023371615876 22.383111003066432  8.69999942410864 24  Z " fill-rule="evenodd" />
    </mask>
  </defs>
  <g transform="matrix(1 0 0 1 -131 -51 )">
    <path d="M 8.69999942410864 24  C 8.69999942410864 24  0 21.51282148051777  0 21.51282148051777  C 3.0011452873949427 11.285438870282851  11.301094339212986 3.4140949712219184  21.774909220987123 0.8658180794789516  C 24.138990287691495 0.29059299238832415  26.564966238203493 0  29 0  C 29 0  29 8.941322842717668  29 8.941322842717668  C 21.44882897456387 8.941322842717668  14.472826086237017 12.917230703589315  10.697240573518954 19.372865369677825  C 9.84429945703705 20.83030082723661  9.174023371615876 22.383111003066432  8.69999942410864 24  Z " fill-rule="nonzero" fill="#165dff" stroke="none" transform="matrix(1 0 0 1 131 51 )" />
    <path d="M 8.69999942410864 24  C 8.69999942410864 24  0 21.51282148051777  0 21.51282148051777  C 3.0011452873949427 11.285438870282851  11.301094339212986 3.4140949712219184  21.774909220987123 0.8658180794789516  C 24.138990287691495 0.29059299238832415  26.564966238203493 0  29 0  C 29 0  29 8.941322842717668  29 8.941322842717668  C 21.44882897456387 8.941322842717668  14.472826086237017 12.917230703589315  10.697240573518954 19.372865369677825  C 9.84429945703705 20.83030082723661  9.174023371615876 22.383111003066432  8.69999942410864 24  Z " stroke-width="1.2142846584320068" stroke="#ffffff" fill="none" transform="matrix(1 0 0 1 131 51 )" mask="url(#clip251)" />
  </g>
</svg>