<?xml version="1.0" encoding="utf-8"?>
<svg version="1.1" xmlns:xlink="http://www.w3.org/1999/xlink" width="30px" height="55px" xmlns="http://www.w3.org/2000/svg">
  <defs>
    <mask fill="white" id="clip249">
      <path d="M 0 8.94211997789233  C 0 8.94211997789233  0 0  0 0  C 10.71709812569372 0  20.62122820385853 5.68122633975506  25.98052745275679 14.90353242583231  C 31.339826701655053 24.125838511909556  31.339826701655053 35.48829249740205  25.98052745275679 44.710598583479296  C 23.552118521465985 48.88954917180298  20.1382447543495 52.42019852677116  16.0328987416853 54.99999999999999  C 16.0328987416853 54.99999999999999  11.224079313932346 47.44241591349476  11.224079313932346 47.44241591349476  C 17.56434162515469 43.45870152537789  21.284202415859767 36.415291835292734  20.982713715508417 28.96650587411869  C 20.681225015157064 21.51771991294464  16.40188512805935 14.796227364832486  9.75863440157607 11.332646244141957  C 6.748247199984507 9.763304217406455  3.4003725540692566 8.94211997789233  0 8.94211997789233  Z " fill-rule="evenodd" />
    </mask>
  </defs>
  <g transform="matrix(1 0 0 1 -160 -51 )">
    <path d="M 0 8.94211997789233  C 0 8.94211997789233  0 0  0 0  C 10.71709812569372 0  20.62122820385853 5.68122633975506  25.98052745275679 14.90353242583231  C 31.339826701655053 24.125838511909556  31.339826701655053 35.48829249740205  25.98052745275679 44.710598583479296  C 23.552118521465985 48.88954917180298  20.1382447543495 52.42019852677116  16.0328987416853 54.99999999999999  C 16.0328987416853 54.99999999999999  11.224079313932346 47.44241591349476  11.224079313932346 47.44241591349476  C 17.56434162515469 43.45870152537789  21.284202415859767 36.415291835292734  20.982713715508417 28.96650587411869  C 20.681225015157064 21.51771991294464  16.40188512805935 14.796227364832486  9.75863440157607 11.332646244141957  C 6.748247199984507 9.763304217406455  3.4003725540692566 8.94211997789233  0 8.94211997789233  Z " fill-rule="nonzero" fill="#8d4eda" stroke="none" transform="matrix(1 0 0 1 160 51 )" />
    <path d="M 0 8.94211997789233  C 0 8.94211997789233  0 0  0 0  C 10.71709812569372 0  20.62122820385853 5.68122633975506  25.98052745275679 14.90353242583231  C 31.339826701655053 24.125838511909556  31.339826701655053 35.48829249740205  25.98052745275679 44.710598583479296  C 23.552118521465985 48.88954917180298  20.1382447543495 52.42019852677116  16.0328987416853 54.99999999999999  C 16.0328987416853 54.99999999999999  11.224079313932346 47.44241591349476  11.224079313932346 47.44241591349476  C 17.56434162515469 43.45870152537789  21.284202415859767 36.415291835292734  20.982713715508417 28.96650587411869  C 20.681225015157064 21.51771991294464  16.40188512805935 14.796227364832486  9.75863440157607 11.332646244141957  C 6.748247199984507 9.763304217406455  3.4003725540692566 8.94211997789233  0 8.94211997789233  Z " stroke-width="1.2142846584320068" stroke="#ffffff" fill="none" transform="matrix(1 0 0 1 160 51 )" mask="url(#clip249)" />
  </g>
</svg>