<?xml version="1.0" encoding="utf-8"?>
<svg version="1.1" xmlns:xlink="http://www.w3.org/1999/xlink" width="16px" height="16px" xmlns="http://www.w3.org/2000/svg">
  <g transform="matrix(1 0 0 1 -1 -7 )">
    <path d="M 5.645563016890738 4.791587554960744  C 5.645563016890738 4.791587554960744  7.438882880553011 0.3712324615493227  7.438882880553011 0.3712324615493227  C 7.639692615746884 -0.12374362960973008  8.360306934851296 -0.12374444509424322  8.561116640085048 0.3712316460648096  C 8.561116640085048 0.3712316460648096  10.35443554502344 4.791587088969593  10.35443554502344 4.791587088969593  C 10.437224872461261 4.995654603398427  10.630266382628738 5.1377319904177075  10.854776281482769 5.159835197569763  C 10.854776281482769 5.159835197569763  15.45680047116485 5.61290907324379  15.45680047116485 5.61290907324379  C 15.96855277813913 5.663291563148674  16.184773055976112 6.273275617222754  15.813577100065187 6.619419668601074  C 15.813577100065187 6.619419668601074  12.268217146884467 9.92550525672967  12.268217146884467 9.92550525672967  C 12.118517880589861 10.065101381034673  12.05311283862502 10.269681514853351  12.095044769708831 10.467172437928232  C 12.095044769708831 10.467172437928232  13.119753780532884 15.293344924086547  13.119753780532884 15.293344924086547  C 13.227989946701543 15.803115360536188  12.650156173124202 16.187033440922924  12.200879257655306 15.903854841892697  C 12.200879257655306 15.903854841892697  8.328148654452004 13.462879494455521  8.328148654452004 13.462879494455521  C 8.128526868027043 13.337058170490785  7.871472173249075 13.337058155928561  7.671850386824114 13.462879494455521  C 7.671850386824114 13.462879494455521  3.799120742344695 15.903856705857299  3.799120742344695 15.903856705857299  C 3.349843826875799 16.187035334011973  2.772010292979427 15.803114428553886  2.8802464591480863 15.293343992104246  C 2.8802464591480863 15.293343992104246  3.9049552302911685 10.467172437928232  3.9049552302911685 10.467172437928232  C 3.9468871613749803 10.269681514853351  3.881482374071169 10.06510136647245  3.731783092796502 9.92550525672967  C 3.731783092796502 9.92550525672967  0.18642273515414573 6.619420134592224  0.18642273515414573 6.619420134592224  C -0.18477325071690076 6.273276083213903  0.031446502817959125 5.663291570429786  0.5431988097922379 5.61290907324379  C 0.5431988097922379 5.61290907324379  5.1452227597933495 5.159835197569763  5.1452227597933495 5.159835197569763  C 5.369732658647381 5.137731988597429  5.562773674472856 4.995655069389577  5.645563016890738 4.791587554960744  Z " fill-rule="nonzero" fill="#ffb400" stroke="none" transform="matrix(1 0 0 1 1 7 )" />
  </g>
</svg>