<?xml version="1.0" encoding="utf-8"?>
<svg version="1.1" xmlns:xlink="http://www.w3.org/1999/xlink" width="46px" height="38px" xmlns="http://www.w3.org/2000/svg">
  <defs>
    <mask fill="white" id="clip250">
      <path d="M 9.644148317587245 3.2452968777129025  C 9.197651932540102 5.103925950133744  9.008913647498247 7.016580371916758  9.087187521024152 8.929237085935815  C 9.391339130392996 16.404566276430305  13.703549838053956 23.15042826334914  20.398393033917365 26.626378376774824  C 23.94462045998443 28.467570650905635  27.94623223158765 29.277115431622587  31.936872759426027 28.958604528351035  C 34.854468413313214 28.631918576359627  38.098699626130504 27.69556618179461  40.68623987236537 26.285451938528148  C 41.17077744913356 26.02139678209682  41.78484137577249 26.158440375994275  42.08255499918306 26.624382442401505  C 42.08255499918306 26.624382442401505  45.840487472007844 32.50580264632492  45.840487472007844 32.50580264632492  C 46.14387272098187 32.98062121584213  46.00284727094486 33.6144327156462  45.51631089795958 33.89649018912814  C 41.59805736830471 36.16800128141709  37.20928955183715 37.537512725402365  32.67533710726883 37.90173208213057  C 32.6701544007193 37.90214841686539  32.665519194955074 37.89849762444162  32.664691918075484 37.89334298078971  C 32.66511415330533 37.89852276457811  32.66124725334464 37.903066527147864  32.656088114025394 37.90347707697921  C 21.893422203427296 38.75993976727543  11.485419089449959 33.87066368627723  5.351398406489375 25.07829191256454  C 2.1013904773804146 20.420637175075225  0.2543886379172393 14.944588057371481  0.024574272173873347 9.289298628092283  C -0.0931757365361327 6.406519363133773  0.21285915259450056 3.524696322537143  0.929165365171509 0.7314901622054801  C 1.0671930113314174 0.1932571540115426  1.6240814848097496 -0.11340691541199444  2.1563000374830605 0.03910411424367285  C 2.1563000374830605 0.03910411424367285  8.929753861235788 1.980085612031849  8.929753861235788 1.980085612031849  C 9.467955046757716 2.1343110080400716  9.775401726503407 2.6989287238028536  9.644148317587245 3.2452968777129025  Z " fill-rule="evenodd" />
    </mask>
  </defs>
  <g transform="matrix(1 0 0 1 -130 -73 )">
    <path d="M 9.644148317587245 3.2452968777129025  C 9.197651932540102 5.103925950133744  9.008913647498247 7.016580371916758  9.087187521024152 8.929237085935815  C 9.391339130392996 16.404566276430305  13.703549838053956 23.15042826334914  20.398393033917365 26.626378376774824  C 23.94462045998443 28.467570650905635  27.94623223158765 29.277115431622587  31.936872759426027 28.958604528351035  C 34.854468413313214 28.631918576359627  38.098699626130504 27.69556618179461  40.68623987236537 26.285451938528148  C 41.17077744913356 26.02139678209682  41.78484137577249 26.158440375994275  42.08255499918306 26.624382442401505  C 42.08255499918306 26.624382442401505  45.840487472007844 32.50580264632492  45.840487472007844 32.50580264632492  C 46.14387272098187 32.98062121584213  46.00284727094486 33.6144327156462  45.51631089795958 33.89649018912814  C 41.59805736830471 36.16800128141709  37.20928955183715 37.537512725402365  32.67533710726883 37.90173208213057  C 32.6701544007193 37.90214841686539  32.665519194955074 37.89849762444162  32.664691918075484 37.89334298078971  C 32.66511415330533 37.89852276457811  32.66124725334464 37.903066527147864  32.656088114025394 37.90347707697921  C 21.893422203427296 38.75993976727543  11.485419089449959 33.87066368627723  5.351398406489375 25.07829191256454  C 2.1013904773804146 20.420637175075225  0.2543886379172393 14.944588057371481  0.024574272173873347 9.289298628092283  C -0.0931757365361327 6.406519363133773  0.21285915259450056 3.524696322537143  0.929165365171509 0.7314901622054801  C 1.0671930113314174 0.1932571540115426  1.6240814848097496 -0.11340691541199444  2.1563000374830605 0.03910411424367285  C 2.1563000374830605 0.03910411424367285  8.929753861235788 1.980085612031849  8.929753861235788 1.980085612031849  C 9.467955046757716 2.1343110080400716  9.775401726503407 2.6989287238028536  9.644148317587245 3.2452968777129025  Z " fill-rule="nonzero" fill="#00b2ff" stroke="none" transform="matrix(1 0 0 1 130 73 )" />
    <path d="M 9.644148317587245 3.2452968777129025  C 9.197651932540102 5.103925950133744  9.008913647498247 7.016580371916758  9.087187521024152 8.929237085935815  C 9.391339130392996 16.404566276430305  13.703549838053956 23.15042826334914  20.398393033917365 26.626378376774824  C 23.94462045998443 28.467570650905635  27.94623223158765 29.277115431622587  31.936872759426027 28.958604528351035  C 34.854468413313214 28.631918576359627  38.098699626130504 27.69556618179461  40.68623987236537 26.285451938528148  C 41.17077744913356 26.02139678209682  41.78484137577249 26.158440375994275  42.08255499918306 26.624382442401505  C 42.08255499918306 26.624382442401505  45.840487472007844 32.50580264632492  45.840487472007844 32.50580264632492  C 46.14387272098187 32.98062121584213  46.00284727094486 33.6144327156462  45.51631089795958 33.89649018912814  C 41.59805736830471 36.16800128141709  37.20928955183715 37.537512725402365  32.67533710726883 37.90173208213057  C 32.6701544007193 37.90214841686539  32.665519194955074 37.89849762444162  32.664691918075484 37.89334298078971  C 32.66511415330533 37.89852276457811  32.66124725334464 37.903066527147864  32.656088114025394 37.90347707697921  C 21.893422203427296 38.75993976727543  11.485419089449959 33.87066368627723  5.351398406489375 25.07829191256454  C 2.1013904773804146 20.420637175075225  0.2543886379172393 14.944588057371481  0.024574272173873347 9.289298628092283  C -0.0931757365361327 6.406519363133773  0.21285915259450056 3.524696322537143  0.929165365171509 0.7314901622054801  C 1.0671930113314174 0.1932571540115426  1.6240814848097496 -0.11340691541199444  2.1563000374830605 0.03910411424367285  C 2.1563000374830605 0.03910411424367285  8.929753861235788 1.980085612031849  8.929753861235788 1.980085612031849  C 9.467955046757716 2.1343110080400716  9.775401726503407 2.6989287238028536  9.644148317587245 3.2452968777129025  Z " stroke-width="1.2142846584320068" stroke="#ffffff" fill="none" transform="matrix(1 0 0 1 130 73 )" mask="url(#clip250)" />
  </g>
</svg>