<?xml version="1.0" encoding="utf-8"?>
<svg version="1.1" xmlns:xlink="http://www.w3.org/1999/xlink" width="15px" height="15px" xmlns="http://www.w3.org/2000/svg">
  <g transform="matrix(1 0 0 1 -29 -582 )">
    <path d="M 13.5 7.5  C 13.5 4.186291337013245  10.813708305358887 1.5  7.5 1.5  C 4.186291337013245 1.5  1.5 4.186291337013245  1.5 7.5  C 1.5 10.813708305358887  4.186291337013245 13.5  7.5 13.5  C 10.813708305358887 13.5  13.5 10.813708305358887  13.5 7.5  Z M 7.5 15  C 3.357864260673523 15  0 11.642136096954346  0 7.5  C 0 3.357864260673523  3.357864260673523 0  7.5 0  C 11.642136096954346 0  15 3.357864260673523  15 7.5  C 15 11.642136096954346  11.642136096954346 15  7.5 15  Z M 10.532170057296753 4.532170057296753  L 11.592829942703247 5.592829942703247  L 6.75 10.435659885406494  L 3.594670057296753 7.280329942703247  L 4.655329942703247 6.219670057296753  L 6.75 8.314340114593506  L 10.532170057296753 4.532170057296753  Z " fill-rule="nonzero" fill="#ededee" stroke="none" transform="matrix(1 0 0 1 29 582 )" />
  </g>
</svg>