<?xml version="1.0" encoding="utf-8"?>
<svg version="1.1" xmlns:xlink="http://www.w3.org/1999/xlink" width="16px" height="16px" xmlns="http://www.w3.org/2000/svg">
  <g transform="matrix(1 0 0 1 -22 -369 )">
    <path d="M 4.418176360050565 2.204385995864868  C 4.418176360050565 2.204385995864868  4.804688930604843 0.8239006698131561  4.804688930604843 0.8239006698131561  C 4.941019128705209 0.3369779884815216  5.387882586840673 0  5.897253248315585 0  C 5.897253248315585 0  9.102436749753274 0  9.102436749753274 0  C 9.611807411228185 0  10.058670148428924 0.3369770050048828  10.195001067464014 0.8239002227783203  C 10.195001067464014 0.8239002227783203  10.58153526606 2.2044607400894165  10.58153526606 2.2044607400894165  C 10.58153526606 2.2044607400894165  11.979998675402603 1.8462653160095215  11.979998675402603 1.8462653160095215  C 12.473199491962108 1.7199394404888153  12.990779437134542 1.9353968203067782  13.245464046937274 2.373050093650818  C 13.245464046937274 2.373050093650818  14.848055797656118 5.126954913139343  14.848055797656118 5.126954913139343  C 15.102741849328297 5.564609169960022  15.032022478552436 6.117044806480408  14.675152581028017 6.477640628814697  C 14.675152581028017 6.477640628814697  13.663356743205263 7.500001430511475  13.663356743205263 7.500001430511475  C 13.663356743205263 7.500001430511475  14.675155464766911 8.522365093231201  14.675155464766911 8.522365093231201  C 15.032025362291327 8.882961988449097  15.102741849328297 9.435396909713745  14.848057239525565 9.87304973602295  C 14.848057239525565 9.87304973602295  13.24546548880672 12.626954555511475  13.24546548880672 12.626954555511475  C 12.990779437134542 13.064608097076416  12.473200212896831 13.280066013336182  11.979999396337327 13.153738975524902  C 11.979999396337327 13.153738975524902  10.581533824190553 12.795543193817139  10.581533824190553 12.795543193817139  C 10.581533824190553 12.795543193817139  10.195001067464014 14.17609977722168  10.195001067464014 14.17609977722168  C 10.058670869363647 14.663021564483643  9.611808853097632 15  9.102437470687997 15  C 9.102437470687997 15  5.897253248315585 15  5.897253248315585 15  C 5.387881505438588 15  4.941018768237846 14.663021564483643  4.804688930604843 14.17609977722168  C 4.804688930604843 14.17609977722168  4.41817708098529 12.795617580413818  4.41817708098529 12.795617580413818  C 4.41817708098529 12.795617580413818  3.0200002431953137 13.153738975524902  3.0200002431953137 13.153738975524902  C 2.5267996068694885 13.280066013336182  2.0092193012296935 13.064608097076416  1.754533970492238 12.626954555511475  C 1.754533970492238 12.626954555511475  0.1519422986256293 9.873049020767212  0.1519422986256293 9.873049020767212  C -0.1027428518781455 9.435396194458008  -0.03202657886867273 8.88296127319336  0.3248442423533578 8.522364377975464  C 0.3248442423533578 8.522364377975464  1.3366426259768547 7.500001430511475  1.3366426259768547 7.500001430511475  C 1.3366426259768547 7.500001430511475  0.32484575181043535 6.477639198303223  0.32484575181043535 6.477639198303223  C -0.03202369512977834 6.117043375968933  -0.1027424914107837 5.564608097076416  0.15194356026139558 5.126953840255737  C 0.15194356026139558 5.126953840255737  1.7545355925953658 2.373049020767212  1.7545355925953658 2.373049020767212  C 2.0092210134496624 1.9353959262371065  2.526801228972617 1.7199384570121765  3.020001865298442 1.8462644219398499  C 3.020001865298442 1.8462644219398499  4.418176360050565 2.204385995864868  4.418176360050565 2.204385995864868  Z M 8.815141378663657 1.5  L 6.184547898470475 1.5  C 6.184547898470475 1.5  5.775598757915985 2.9606205224990845  5.775598757915985 2.9606205224990845  C 5.610150006329807 3.5515447854995728  4.9981240076934315 3.902113080024719  4.399582372127088 3.748805522918701  C 4.399582372127088 3.748805522918701  2.9202401798837876 3.369893789291382  2.9202401798837876 3.369893789291382  L 1.6049432595535147 5.630108714103699  C 1.6049432595535147 5.630108714103699  2.6754722074377204 6.711816787719727  2.6754722074377204 6.711816787719727  C 3.10856563211893 7.149432063102722  3.1085659925862923 7.850571155548095  2.6754722074377204 8.28818678855896  C 2.6754722074377204 8.28818678855896  1.6049419979177484 9.36989450454712  1.6049419979177484 9.36989450454712  L 2.92023873801434 11.630109786987305  C 2.92023873801434 11.630109786987305  4.3995845349312575 11.251197338104248  4.3995845349312575 11.251197338104248  C 4.99812977517122 11.097889423370361  5.610152169133978 11.448462724685669  5.775600199785432 12.03938341140747  C 5.775600199785432 12.03938341140747  6.184547898470475 13.5  6.184547898470475 13.5  L 8.815141378663657 13.5  C 8.815141378663657 13.5  9.224111065857773 12.039307594299316  9.224111065857773 12.039307594299316  C 9.389560538378673 11.448381900787354  10.001587978884496 11.097816467285156  10.600127451646667 11.251123666763306  C 10.600127451646667 11.251123666763306  12.079761622453022 11.630109786987305  12.079761622453022 11.630109786987305  L 13.395056560212804 9.369895219802856  C 13.395056560212804 9.369895219802856  12.3245276123286 8.28818678855896  12.3245276123286 8.28818678855896  C 11.891434728348433 7.850571155548095  11.891433286478986 7.1494317054748535  12.3245276123286 6.711816072463989  C 12.3245276123286 6.711816072463989  13.395055118343357 5.630110144615173  13.395055118343357 5.630110144615173  L 12.079760180583575 3.3698952198028564  C 12.079760180583575 3.3698952198028564  10.600127451646667 3.748880624771118  10.600127451646667 3.748880624771118  C 10.001584374210877 3.9021883606910706  9.389560538378673 3.551617920398712  9.224111786792497 2.960695266723633  C 9.224111786792497 2.960695266723633  8.815141378663657 1.5  8.815141378663657 1.5  Z M 9.011754696481194 7.5  C 9.011754696481194 6.671572923660278  8.33484961926476 6  7.499844999034429 6  C 6.664840378804097 6  5.987935301587663 6.671572923660278  5.987935301587663 7.5  C 5.987935301587663 8.328427076339722  6.664840378804097 9  7.499844999034429 9  C 8.33484961926476 9  9.011754696481194 8.328427076339722  9.011754696481194 7.5  Z M 7.499844999034429 10.5  C 5.829835758573765 10.5  4.4760256041408955 9.156854152679443  4.4760256041408955 7.5  C 4.4760256041408955 5.843145847320557  5.829835758573765 4.5  7.499844999034429 4.5  C 9.169854239495093 4.5  10.52366439392796 5.843145847320557  10.52366439392796 7.5  C 10.52366439392796 9.156854152679443  9.169854239495093 10.5  7.499844999034429 10.5  Z " fill-rule="nonzero" fill="#ffffff" stroke="none" transform="matrix(1 0 0 1 22 369 )" />
  </g>
</svg>