<?xml version="1.0" encoding="utf-8"?>
<svg version="1.1" xmlns:xlink="http://www.w3.org/1999/xlink" width="14px" height="14px" xmlns="http://www.w3.org/2000/svg">
  <g transform="matrix(1 0 0 1 -32 -771 )">
    <path d="M 7 5.894736842105263  C 5.779160098025673 5.894736842105263  4.7894736842105265 4.905050428290116  4.7894736842105265 3.6842105263157894  C 4.7894736842105265 2.463370624341463  5.779160098025673 1.4736842105263157  7 1.4736842105263157  C 8.220840253328022 1.4736842105263157  9.210526315789474 2.463370624341463  9.210526315789474 3.6842105263157894  C 9.210526315789474 4.905050428290116  8.220840253328022 5.894736842105263  7 5.894736842105263  Z M 10.68421052631579 3.6842105263157894  C 10.68421052631579 1.6494773563585785  9.034732818603516 0  7 0  C 4.965266830042789 0  3.31578947368421 1.6494773563585785  3.31578947368421 3.6842105263157894  C 3.31578947368421 5.7189436962730005  4.965266830042789 7.368421052631579  7 7.368421052631579  C 9.034732818603516 7.368421052631579  10.68421052631579 5.7189436962730005  10.68421052631579 3.6842105263157894  Z M 9.947368421052632 8.105263157894736  C 9.947368421052632 8.105263157894736  4.052631578947368 8.105263157894736  4.052631578947368 8.105263157894736  C 2.992156179327714 8.105263157894736  1.9859355876320286 8.42841228685881  1.2319430301063938 9.066668058696546  C 0.4662595297160902 9.714820058722244  0 10.657485861527292  0 11.789473684210526  C 0 11.789473684210526  0 12.894736842105264  0 12.894736842105264  C 0 13.505157671476665  0.4948444366455078 14  1.1052635092484324 14  C 1.1052635092484324 14  12.894736842105264 14  12.894736842105264 14  C 13.505156266061883 14  14 13.505156266061883  14 12.894736842105264  C 14 12.894736842105264  14 11.789473684210526  14 11.789473684210526  C 14 10.657485861527292  13.533740997314453 9.714820058722244  12.768056969893607 9.066668058696546  C 12.01406458804482 8.42841228685881  11.007843820672287 8.105263157894736  9.947368421052632 8.105263157894736  Z M 1.4736842105263157 12.526315789473685  C 1.4736842105263157 12.526315789473685  1.4736842105263157 11.789473684210526  1.4736842105263157 11.789473684210526  C 1.4736842105263157 11.090201829609118  1.749689403333162 10.559182719180459  2.184085720463803 10.191465779354697  C 2.6301729804591125 9.813852611340975  3.281847301282381 9.578947368421053  4.052631578947368 9.578947368421053  C 4.052631578947368 9.578947368421053  9.947368421052632 9.578947368421053  9.947368421052632 9.578947368421053  C 10.718152698717619 9.578947368421053  11.369828073601974 9.813852611340975  11.815915157920434 10.191465779354697  C 12.25031200208162 10.559182719180459  12.526315789473685 11.090201829609118  12.526315789473685 11.789473684210526  C 12.526315789473685 11.789473684210526  12.526315789473685 12.526315789473685  12.526315789473685 12.526315789473685  L 1.4736842105263157 12.526315789473685  Z " fill-rule="nonzero" fill="#ffffff" stroke="none" transform="matrix(1 0 0 1 32 771 )" />
  </g>
</svg>