<?xml version="1.0" encoding="utf-8"?>
<svg version="1.1" xmlns:xlink="http://www.w3.org/1999/xlink" width="13px" height="13px" xmlns="http://www.w3.org/2000/svg">
  <g transform="matrix(1 0 0 1 -118 -21 )">
    <path d="M 6.5 11.700000000000001  C 3.6281191587448123 11.700000000000001  1.2999999999999998 9.371880531311035  1.2999999999999998 6.5  C 1.2999999999999998 3.6281191587448123  3.6281191587448123 1.2999999999999998  6.5 1.2999999999999998  C 9.371880531311035 1.2999999999999998  11.700000000000001 3.6281191587448123  11.700000000000001 6.5  C 11.700000000000001 9.371880531311035  9.371880531311035 11.700000000000001  6.5 11.700000000000001  Z M 13 6.5  C 13 2.9101490259170535  10.089851284027098 0  6.5 0  C 2.9101490259170535 0  0 2.9101490259170535  0 6.5  C 0 10.089851284027098  2.9101490259170535 13  6.5 13  C 10.089851284027098 13  13 10.089851284027098  13 6.5  Z M 4.095006942749023 5.193046712875366  L 5.395006942749023 5.193046712875366  C 5.395006942749023 5.193046712875366  5.395006942749023 5.043164539337158  5.395006942749023 5.043164539337158  C 5.395788621902465 4.864831972122192  5.459565210342407 4.667010736465453  5.601863050460815 4.518286514282226  C 5.733287429809569 4.380927014350891  5.989444494247436 4.2250000000000005  6.4962688922882075 4.2250000000000005  C 6.972204875946045 4.2250000000000005  7.303165102005004 4.452230596542358  7.471946430206299 4.710210752487182  C 7.652190113067626 4.9857111215591425  7.616675472259521 5.21687273979187  7.531129026412963 5.332364130020141  C 7.424441909790039 5.476396417617798  7.291974258422852 5.609431266784668  7.131881284713745 5.753549098968506  C 7.083177280426026 5.79739317893982  7.023144817352295 5.849633026123048  6.958776235580443 5.90564489364624  C 6.843658018112182 6.005818843841552  6.714693975448609 6.118040943145751  6.611859464645385 6.215890312194824  C 6.2467266559600825 6.563322210311889  5.850120258331298 7.048221778869628  5.850120258331298 7.799999999999998  C 5.850120258331298 7.799999999999998  5.852235317230225 8.129175567626952  5.852235317230225 8.129175567626952  L 7.152208042144776 8.120824432373047  C 7.152208042144776 8.120824432373047  7.150135755538939 7.798222160339355  7.150135755538939 7.798222160339355  C 7.150618028640746 7.575900459289551  7.241750288009643 7.411002731323242  7.507986736297608 7.157673597335814  C 7.597480630874633 7.072517681121826  7.677926635742187 7.0029209613800045  7.769975090026855 6.923285150527954  C 7.838092136383055 6.8643554687499995  7.912519645690918 6.799965190887451  8.001650285720826 6.719728088378906  C 8.187020444869994 6.552855396270752  8.393295097351073 6.352485799789428  8.575764179229736 6.106145286560058  C 9.06853075027466 5.440891695022582  8.953297233581543 4.599925804138183  8.559810113906861 3.9984853744506834  C 8.154860019683838 3.3795244216918943  7.418074417114258 2.9250000000000003  6.4962688922882075 2.9250000000000003  C 5.6985637664794915 2.9250000000000003  5.080115771293641 3.1831472158432006  4.662554979324341 3.6195653200149533  C 4.256103205680848 4.0443722963333135  4.096485686302184 4.579622912406922  4.095006942749023 5.039874792098999  C 4.095006942749023 5.039874792098999  4.095006942749023 5.193046712875366  4.095006942749023 5.193046712875366  Z M 7.152221679687498 8.774999999999999  L 5.852221679687499 8.774999999999999  L 5.852221679687499 10.077526664733886  L 7.152221679687498 10.077526664733886  L 7.152221679687498 8.774999999999999  Z " fill-rule="nonzero" fill="#4e5969" stroke="none" transform="matrix(1 0 0 1 118 21 )" />
  </g>
</svg>