<?xml version="1.0" encoding="utf-8"?>
<svg version="1.1" xmlns:xlink="http://www.w3.org/1999/xlink" width="12px" height="4px" xmlns="http://www.w3.org/2000/svg">
  <g transform="matrix(1 0 0 1 -700 -30 )">
    <path d="M 3.9130437270454737 1  C 3.9130437270454737 1  2.0869565217391304 1  2.0869565217391304 1  C 1.5106594251549763 1  1.0434782608695652 1.4477152824401855  1.0434782608695652 1.9999998807907104  C 1.0434782608695652 2.5522844791412354  1.5106593629588252 2.999999761581421  2.086956397346828 2.999999761581421  C 2.086956397346828 2.999999761581421  5.217390806778617 2.999999761581421  5.217390806778617 2.999999761581421  C 5.7936879033627715 2.999999761581421  6.260869067648183 2.5522844791412354  6.260869067648183 1.9999998807907104  C 6.260869067648183 1.9999998807907104  7.304347328517748 1.9999998807907104  7.304347328517748 1.9999998807907104  C 7.304347328517748 3.10456919670105  6.369984999946926 3.999999761581421  5.217390806778617 3.999999761581421  C 5.217390806778617 3.999999761581421  2.086956397346828 3.999999761581421  2.086956397346828 3.999999761581421  C 0.93436220417852 3.999999761581421  0 3.10456919670105  0 1.9999998807907104  C 0 0.8954304456710815  0.9343624529631243 0  2.0869565217391304 0  C 2.0869565217391304 0  3.9130437270454737 0  3.9130437270454737 0  L 3.9130437270454737 1  Z M 5.739130932351817 2  C 5.739130932351817 2  4.695652671482252 2  4.695652671482252 2  C 4.695652671482252 0.8954305648803711  5.630015000053074 0  6.782609193221382 0  C 6.782609193221382 0  9.91304347826087 0  9.91304347826087 0  C 11.065637671429178 0  12 0.8954305648803711  12 2  C 12 3.1045695543289185  11.065637671429178 4  9.91304347826087 4  C 9.91304347826087 4  8.086956024169922 4  8.086956024169922 4  L 8.086956024169922 3  C 8.086956024169922 3  9.91304347826087 3  9.91304347826087 3  C 10.489340077275816 3  10.956521739130434 2.552284598350525  10.956521739130434 2  C 10.956521739130434 1.447715401649475  10.489340077275816 1.000000238418579  9.91304347826087 1.000000238418579  C 9.91304347826087 1.000000238418579  6.782609193221382 1.000000238418579  6.782609193221382 1.000000238418579  C 6.2063120966372285 1.000000238418579  5.739130932351817 1.4477153420448303  5.739130932351817 2  Z " fill-rule="nonzero" fill="#165dff" stroke="none" transform="matrix(1 0 0 1 700 30 )" />
  </g>
</svg>