<?xml version="1.0" encoding="utf-8"?>
<svg version="1.1" xmlns:xlink="http://www.w3.org/1999/xlink" width="15px" height="15px" xmlns="http://www.w3.org/2000/svg">
  <g transform="matrix(1 0 0 1 -22 -29 )">
    <path d="M 4.38185062893884 5.651636123657227  L 5.318817550894169 4.473363876342773  C 5.318817550894169 4.473363876342773  3.502865848745679 3.05601167678833  3.502865848745679 3.05601167678833  C 4.355332996867362 2.2575064301490784  5.452057281165641 1.702315092086792  6.742995605374509 1.545308232307434  C 6.742995605374509 1.545308232307434  6.742995605374509 3.5625  6.742995605374509 3.5625  L 8.257057819748638 3.5625  C 8.257057819748638 3.5625  8.257057819748638 1.5452987551689148  8.257057819748638 1.5452987551689148  C 9.496971180563342 1.696075201034546  10.557145821996539 2.2141029238700867  11.393956521190859 2.9616156220436096  C 11.393956521190859 2.9616156220436096  9.646324000172886 4.502192974090576  9.646324000172886 4.502192974090576  L 10.652779680279036 5.622807025909424  C 10.652779680279036 5.622807025909424  12.383441061163488 4.0971901416778564  12.383441061163488 4.0971901416778564  C 12.91903369642844 4.889333367347717  13.274377185797466 5.803327918052673  13.41631474270605 6.75  C 13.41631474270605 6.75  11.095840724209792 6.75  11.095840724209792 6.75  L 11.095840724209792 8.25  C 11.095840724209792 8.25  13.459140032638418 8.25  13.459140032638418 8.25  C 13.336415305152272 9.548384428024292  12.788501681351196 10.815221071243286  11.737239649989398 11.840533018112183  C 11.737239649989398 11.840533018112183  12.799426397074189 12.909467697143555  12.799426397074189 12.909467697143555  C 14.371235393884179 11.37645936012268  15.047196042574916 9.406224489212036  14.99744858938904 7.480807542800903  C 14.950574541475271 5.666627883911133  14.260411473560195 3.8818334341049194  13.06175097135056 2.5092787742614746  C 11.750622643338401 1.0079410672187805  9.828948398165602 0  7.500026712561574 0  C 5.089305748706896 0  3.1163679319885667 1.0797117948532104  1.8042902250988146 2.667001962661743  C 0.33763811477275874 4.441288948059082  -0.3134985549587129 6.859746694564819  0.14457864862787437 9.14602518081665  C 0.41769054040089637 10.509135246276855  1.084953249648092 11.82133412361145  2.2006272085392404 12.909467697143555  C 2.2006272085392404 12.909467697143555  3.262813414153191 11.840533018112183  3.262813414153191 11.840533018112183  C 2.5398837796609306 11.135448932647705  2.056923554231939 10.318631172180176  1.7849835407303032 9.45799970626831  C 1.7849835407303032 9.45799970626831  4.557729744153342 8.386200428009033  4.557729744153342 8.386200428009033  L 4.007391774899068 6.988799571990967  C 4.007391774899068 6.988799571990967  1.52018462519292 7.950224876403809  1.52018462519292 7.950224876403809  C 1.4619239869273055 6.640524387359619  1.8279976234965036 5.31798255443573  2.53961629306462 4.213770031929016  C 2.53961629306462 4.213770031929016  4.38185062893884 5.651636123657227  4.38185062893884 5.651636123657227  Z M 7.500020936872586 15  C 6.036682267123497 15  4.850412061717858 13.824747562408447  4.850412061717858 12.375  C 4.850412061717858 11.185867309570312  5.648516259190204 10.181410789489746  6.74298982968552 9.858704566955566  C 6.74298982968552 9.858704566955566  6.74298982968552 5.625  6.74298982968552 5.625  L 8.257052044059652 5.625  C 8.257052044059652 5.625  8.257052044059652 9.858704566955566  8.257052044059652 9.858704566955566  C 9.351525614554966 10.181410789489746  10.149629812027314 11.185867309570312  10.149629812027314 12.375  C 10.149629812027314 13.824747562408447  8.963359606621674 15  7.500020936872586 15  Z M 7.500020936872586 13.5  C 6.872875689557102 13.5  6.364474276091988 12.996319770812988  6.364474276091988 12.375  C 6.364474276091988 11.753679513931274  6.872875689557102 11.25  7.500020936872586 11.25  C 8.12716618418807 11.25  8.635567597653184 11.753679513931274  8.635567597653184 12.375  C 8.635567597653184 12.996319770812988  8.12716618418807 13.5  7.500020936872586 13.5  Z " fill-rule="nonzero" fill="#ffffff" stroke="none" transform="matrix(1 0 0 1 22 29 )" />
  </g>
</svg>