<?xml version="1.0" encoding="utf-8"?>
<svg version="1.1" xmlns:xlink="http://www.w3.org/1999/xlink" width="128px" height="53px" xmlns="http://www.w3.org/2000/svg">
  <g transform="matrix(1 0 0 1 -133 -41 )">
    <path d="M 0 50  C 0 46.00406410404886  3.548534387171012 44.023173862022716  6.692160864244714 44.023173862022716  C 9.082218096491605 44.023173862022716  10.124406077831088 45.004325163249746  13.948497854077253 43.012036705758746  C 17.835346158481975 40.98705307296365  18.583352857393255 42.04520504432538  20.5544934252301 40.038604080585394  C 22.532188841201716 38.0253303991574  27.960075585115618 40.038604080585394  30.579399141630898 40.038604080585394  C 32.72532188841201 40.038604080585394  32.57999988072931 39.249958378144676  36.53864389837044 37.54824749161742  C 45.86909871244635 33.53734446780104  44.79982157121911 33.038671173950895  50.0183596631488 29.54315486358608  C 56.71052052739351 25.060566647699677  58.59333327911442 23.07180858146782  59.54935622317596 23.07180858146782  C 67.6755511197921 24.06795281021332  68.89673824474022 30.545435486352517  72.24281867686258 25.564660959932382  C 75.58889910898495 20.583886433512244  77.97895659704577 22.576095470872538  80.13000815723075 25.0664922454755  C 82.28105971741573 27.556889020078472  83.95675016575105 24.746298812658583  88.45930959022095 20.57603049854765  C 92.76141271059093 16.591425049386956  94.5565163321761 13.104972145315214  100.05364806866952 18.583770337450524  C 105.55077980516293 24.062568529585835  103.38434180476634 17.553430154493935  106.49141630901286 12.572847758210347  C 107.51160154271022 10.937509986962544  111.42642303597773 11.106041049916247  116.68454935622317 13.098390261429385  C 121.94267567646861 15.090739472942523  124.99999999999999 -3.6239388994968396  124.99999999999999 0.6316318662555107  " stroke-width="2" stroke="#4080ff" fill="none" transform="matrix(1 0 0 1 134 42 )" />
  </g>
</svg>