<?xml version="1.0" encoding="utf-8"?>
<svg version="1.1" xmlns:xlink="http://www.w3.org/1999/xlink" width="14px" height="11px" xmlns="http://www.w3.org/2000/svg">
  <g transform="matrix(1 0 0 1 -25 -251 )">
    <path d="M 1.4736842105263157 0  L 1.4736842105263157 1.5714285714285714  L 0 1.5714285714285714  L 0 0  L 1.4736842105263157 0  Z M 14 0  L 14 1.5714285714285714  L 2.9473684210526314 1.5714285714285714  L 2.9473684210526314 0  L 14 0  Z M 1.4736842105263157 4.714285714285714  L 1.4736842105263157 6.285714285714286  L 0 6.285714285714286  L 0 4.714285714285714  L 1.4736842105263157 4.714285714285714  Z M 14 4.714285714285714  L 14 6.285714285714286  L 2.9473684210526314 6.285714285714286  L 2.9473684210526314 4.714285714285714  L 14 4.714285714285714  Z M 1.4736842105263157 9.428571428571429  L 1.4736842105263157 11  L 0 11  L 0 9.428571428571429  L 1.4736842105263157 9.428571428571429  Z M 14 9.428571428571429  L 14 11  L 2.9473684210526314 11  L 2.9473684210526314 9.428571428571429  L 14 9.428571428571429  Z " fill-rule="nonzero" fill="#ffffff" stroke="none" transform="matrix(1 0 0 1 25 251 )" />
  </g>
</svg>