<?xml version="1.0" encoding="utf-8"?>
<svg version="1.1" xmlns:xlink="http://www.w3.org/1999/xlink" width="11px" height="11px" xmlns="http://www.w3.org/2000/svg">
  <g transform="matrix(1 0 0 1 -1226 -25 )">
    <path d="M 5.628572403071979 11  C 8.141333751938069 11  10.269518130612074 9.353428632481705  10.993016177237465 7.080395596425281  C 11.0295320777109 6.965674276832229  10.916495855114547 6.862333327511761  10.801769050179558 6.898832329454454  C 10.291374783694634 7.061209832431161  9.747650279578924 7.148830942550322  9.183460236591122 7.148830942550322  C 6.238494619436109 7.148830942550322  3.8511284863124065 4.761460810712242  3.8511284863124065 1.8164912404162354  C 3.8511284863124065 1.2523186083495736  3.9387441025839114 0.7086099201143221  4.101110918885333 0.19822925730770063  C 4.137609020781342 0.08350219907776013  4.034266807507436 -0.029532458986323326  3.91954593543159 0.006984187057635369  C 1.6465441378009529 0.7304997309141125  0 2.858674032326167  0 5.3714195015158355  C 0 8.479998633642596  2.5199977419178534 11  5.628572403071979 11  Z " fill-rule="nonzero" fill="#4e5969" stroke="none" transform="matrix(1 0 0 1 1226 25 )" />
  </g>
</svg>