<?xml version="1.0" encoding="utf-8"?>
<svg version="1.1" xmlns:xlink="http://www.w3.org/1999/xlink" width="13px" height="13px" xmlns="http://www.w3.org/2000/svg">
  <g transform="matrix(1 0 0 1 -246 -84 )">
    <path d="M 5.131578947368421 0  C 5.131578947368421 0  0.6842105263157895 0  0.6842105263157895 0  C 0.3063314682558963 0  0 0.3063314682558963  0 0.6842105263157895  C 0 0.6842105263157895  0 5.131578947368421  0 5.131578947368421  C 0 5.509457638389186  0.3063314682558963 5.8157894736842115  0.6842105263157895 5.8157894736842115  C 0.6842105263157895 5.8157894736842115  5.131578947368421 5.8157894736842115  5.131578947368421 5.8157894736842115  C 5.509457638389186 5.8157894736842115  5.8157894736842115 5.509457638389186  5.8157894736842115 5.131578947368421  C 5.8157894736842115 5.131578947368421  5.8157894736842115 0.6842105263157895  5.8157894736842115 0.6842105263157895  C 5.8157894736842115 0.3063314682558963  5.509457638389186 0  5.131578947368421 0  Z M 4.447368421052633 4.447368421052633  L 1.368421052631579 4.447368421052633  L 1.368421052631579 1.368421052631579  L 4.447368421052633 1.368421052631579  L 4.447368421052633 4.447368421052633  Z M 12.31578947368421 0  C 12.31578947368421 0  7.868421052631579 0  7.868421052631579 0  C 7.490541709096807 0  7.18421052631579 0.3063314682558963  7.18421052631579 0.6842105263157895  C 7.18421052631579 0.6842105263157895  7.18421052631579 5.131578947368421  7.18421052631579 5.131578947368421  C 7.18421052631579 5.509457638389186  7.490541709096807 5.8157894736842115  7.868421052631579 5.8157894736842115  C 7.868421052631579 5.8157894736842115  12.31578947368421 5.8157894736842115  12.31578947368421 5.8157894736842115  C 12.693668164704976 5.8157894736842115  13 5.509457638389186  13 5.131578947368421  C 13 5.131578947368421  13 0.6842105263157895  13 0.6842105263157895  C 13 0.3063314682558963  12.693668164704976 0  12.31578947368421 0  Z M 11.631578947368423 4.447368421052633  L 8.55263157894737 4.447368421052633  L 8.55263157894737 1.368421052631579  L 11.631578947368423 1.368421052631579  L 11.631578947368423 4.447368421052633  Z M 0 12.31578947368421  C 0 12.31578947368421  0 7.868421052631579  0 7.868421052631579  C 0 7.490541709096807  0.3063314682558963 7.18421052631579  0.6842105263157895 7.18421052631579  C 0.6842105263157895 7.18421052631579  5.131578947368421 7.18421052631579  5.131578947368421 7.18421052631579  C 5.509457638389186 7.18421052631579  5.8157894736842115 7.490541709096807  5.8157894736842115 7.868421052631579  C 5.8157894736842115 7.868421052631579  5.8157894736842115 12.31578947368421  5.8157894736842115 12.31578947368421  C 5.8157894736842115 12.693668164704976  5.509457638389186 13  5.131578947368421 13  C 5.131578947368421 13  0.6842105263157895 13  0.6842105263157895 13  C 0.3063314682558963 13  0 12.693668164704976  0 12.31578947368421  Z M 4.447368421052633 8.55263157894737  L 1.368421052631579 8.55263157894737  L 1.368421052631579 11.631578947368423  L 4.447368421052633 11.631578947368423  L 4.447368421052633 8.55263157894737  Z M 12.31578947368421 7.18421052631579  C 12.31578947368421 7.18421052631579  7.868421052631579 7.18421052631579  7.868421052631579 7.18421052631579  C 7.490541709096807 7.18421052631579  7.18421052631579 7.490541709096807  7.18421052631579 7.868421052631579  C 7.18421052631579 7.868421052631579  7.18421052631579 12.31578947368421  7.18421052631579 12.31578947368421  C 7.18421052631579 12.693668164704976  7.490541709096807 13  7.868421052631579 13  C 7.868421052631579 13  12.31578947368421 13  12.31578947368421 13  C 12.693668164704976 13  13 12.693668164704976  13 12.31578947368421  C 13 12.31578947368421  13 7.868421052631579  13 7.868421052631579  C 13 7.490541709096807  12.693668164704976 7.18421052631579  12.31578947368421 7.18421052631579  Z M 11.631578947368423 11.631578947368423  L 8.55263157894737 11.631578947368423  L 8.55263157894737 8.55263157894737  L 11.631578947368423 8.55263157894737  L 11.631578947368423 11.631578947368423  Z " fill-rule="nonzero" fill="#ffffff" stroke="none" transform="matrix(1 0 0 1 246 84 )" />
  </g>
</svg>