<?xml version="1.0" encoding="utf-8"?>
<svg version="1.1" xmlns:xlink="http://www.w3.org/1999/xlink" width="11px" height="12px" xmlns="http://www.w3.org/2000/svg">
  <g transform="matrix(1 0 0 1 -1173 -24 )">
    <path d="M 0.9166666666666666 5.4  C 0.9166666666666666 3.1181539535522464  2.6465024153391523 1.2329870223999024  4.888888597488403 0.9396514892578127  C 4.888888597488403 0.9396514892578127  4.888887723286947 0  4.888887723286947 0  L 6.111109945509169 0  C 6.111109945509169 0  6.11111052831014 0.9396513462066651  6.11111052831014 0.9396513462066651  C 8.353497293260364 1.2329864501953125  10.083333333333332 3.118153667449951  10.083333333333332 5.4  C 10.083333333333332 5.4  10.083333333333332 8.700000000000001  10.083333333333332 8.700000000000001  L 11 8.700000000000001  L 11 10  L 0 10  L 0 8.700000000000001  L 0.9166666666666666 8.700000000000001  C 0.9166666666666666 8.700000000000001  0.9166666666666666 5.4  0.9166666666666666 5.4  Z M 2.1388888888888893 5.4  C 2.1388888888888893 5.4  2.1388888888888893 8.700000000000001  2.1388888888888893 8.700000000000001  L 8.86111111111111 8.700000000000001  C 8.86111111111111 8.700000000000001  8.86111111111111 5.4  8.86111111111111 5.4  C 8.86111111111111 3.57746057510376  7.356290446387398 2.1  5.5 2.1  C 3.6437098450130883 2.1  2.1388888888888893 3.57746057510376  2.1388888888888893 5.4  Z M 3.3611111111111116 10.8  L 7.638888888888888 10.8  L 7.638888888888888 12  L 3.3611111111111116 12  L 3.3611111111111116 10.8  Z " fill-rule="nonzero" fill="#4e5969" stroke="none" transform="matrix(1 0 0 1 1173 24 )" />
  </g>
</svg>