<?xml version="1.0" encoding="utf-8"?>
<svg version="1.1" xmlns:xlink="http://www.w3.org/1999/xlink" width="15px" height="14px" xmlns="http://www.w3.org/2000/svg">
  <g transform="matrix(1 0 0 1 -21 -117 )">
    <path d="M 5.921052631578948 0  C 5.921052631578948 0  0.7894736842105263 0  0.7894736842105263 0  C 0.3534593864491111 0  0 0.3298954273525037  0 0.7368421052631579  C 0 0.7368421052631579  0 5.526315789473684  0 5.526315789473684  C 0 5.933262072111431  0.3534593864491111 6.2631578947368425  0.7894736842105263 6.2631578947368425  C 0.7894736842105263 6.2631578947368425  5.921052631578948 6.2631578947368425  5.921052631578948 6.2631578947368425  C 6.357066505833676 6.2631578947368425  6.7105263157894735 5.933262072111431  6.7105263157894735 5.526315789473684  C 6.7105263157894735 5.526315789473684  6.7105263157894735 0.7368421052631579  6.7105263157894735 0.7368421052631579  C 6.7105263157894735 0.3298954273525037  6.357066505833676 0  5.921052631578948 0  Z M 5.131578947368421 4.7894736842105265  L 1.5789473684210527 4.7894736842105265  L 1.5789473684210527 1.4736842105263157  L 5.131578947368421 1.4736842105263157  L 5.131578947368421 4.7894736842105265  Z M 14.210526315789473 0  C 14.210526315789473 0  9.078947368421053 0  9.078947368421053 0  C 8.642932741265547 0  8.289473684210527 0.3298954273525037  8.289473684210527 0.7368421052631579  C 8.289473684210527 0.7368421052631579  8.289473684210527 5.526315789473684  8.289473684210527 5.526315789473684  C 8.289473684210527 5.933262072111431  8.642932741265547 6.2631578947368425  9.078947368421053 6.2631578947368425  C 9.078947368421053 6.2631578947368425  14.210526315789473 6.2631578947368425  14.210526315789473 6.2631578947368425  C 14.646540190044202 6.2631578947368425  15 5.933262072111431  15 5.526315789473684  C 15 5.526315789473684  15 0.7368421052631579  15 0.7368421052631579  C 15 0.3298954273525037  14.646540190044202 0  14.210526315789473 0  Z M 13.421052631578947 4.7894736842105265  L 9.868421052631579 4.7894736842105265  L 9.868421052631579 1.4736842105263157  L 13.421052631578947 1.4736842105263157  L 13.421052631578947 4.7894736842105265  Z M 0 13.26315789473684  C 0 13.26315789473684  0 8.473684210526315  0 8.473684210526315  C 0 8.066737225181177  0.3534593864491111 7.736842105263158  0.7894736842105263 7.736842105263158  C 0.7894736842105263 7.736842105263158  5.921052631578948 7.736842105263158  5.921052631578948 7.736842105263158  C 6.357066505833676 7.736842105263158  6.7105263157894735 8.066737225181177  6.7105263157894735 8.473684210526315  C 6.7105263157894735 8.473684210526315  6.7105263157894735 13.26315789473684  6.7105263157894735 13.26315789473684  C 6.7105263157894735 13.670104177374588  6.357066505833676 14  5.921052631578948 14  C 5.921052631578948 14  0.7894736842105263 14  0.7894736842105263 14  C 0.3534593864491111 14  0 13.670104177374588  0 13.26315789473684  Z M 5.131578947368421 9.210526315789474  L 1.5789473684210527 9.210526315789474  L 1.5789473684210527 12.526315789473685  L 5.131578947368421 12.526315789473685  L 5.131578947368421 9.210526315789474  Z M 14.210526315789473 7.736842105263158  C 14.210526315789473 7.736842105263158  9.078947368421053 7.736842105263158  9.078947368421053 7.736842105263158  C 8.642932741265547 7.736842105263158  8.289473684210527 8.066737225181177  8.289473684210527 8.473684210526315  C 8.289473684210527 8.473684210526315  8.289473684210527 13.26315789473684  8.289473684210527 13.26315789473684  C 8.289473684210527 13.670104177374588  8.642932741265547 14  9.078947368421053 14  C 9.078947368421053 14  14.210526315789473 14  14.210526315789473 14  C 14.646540190044202 14  15 13.670104177374588  15 13.26315789473684  C 15 13.26315789473684  15 8.473684210526315  15 8.473684210526315  C 15 8.066737225181177  14.646540190044202 7.736842105263158  14.210526315789473 7.736842105263158  Z M 13.421052631578947 12.526315789473685  L 9.868421052631579 12.526315789473685  L 9.868421052631579 9.210526315789474  L 13.421052631578947 9.210526315789474  L 13.421052631578947 12.526315789473685  Z " fill-rule="nonzero" fill="#cd1691" stroke="none" transform="matrix(1 0 0 1 21 117 )" />
  </g>
</svg>