<?xml version="1.0" encoding="utf-8"?>
<svg version="1.1" xmlns:xlink="http://www.w3.org/1999/xlink" width="12px" height="10px" xmlns="http://www.w3.org/2000/svg">
  <g transform="matrix(1 0 0 1 -190 -19 )">
    <path d="M 0 0  L 0 1.3333333333333333  L 12 1.3333333333333333  L 12 0  L 0 0  Z M 0 4.333333333333333  L 0 5.666666666666666  L 6.666666666666666 5.666667302449544  L 6.666666666666666 4.333333969116211  L 0 4.333333333333333  Z M 12 8.66666539510091  L 12 10  L 0 10  L 0 8.666666666666666  L 12 8.66666539510091  Z M 11.847752888997395 4.651524225870768  C 11.847752888997395 4.651524225870768  9.294668833414713 2.9995012283325195  9.294668833414713 2.9995012283325195  C 9.07288106282552 2.855989456176758  8.78024927775065 3.0151869455973306  8.78024927775065 3.279356002807617  C 8.78024927775065 3.279356002807617  8.78024927775065 6.583401997884114  8.78024927775065 6.583401997884114  C 8.78024927775065 6.8475710550944004  9.072880427042643 7.006769180297851  9.294667561848957 6.8632570902506504  C 9.294667561848957 6.8632570902506504  11.847752888997395 5.211234728495279  11.847752888997395 5.211234728495279  C 12.05074946085612 5.07988166809082  12.05074946085612 4.782876968383788  11.847752888997395 4.651524225870768  Z " fill-rule="nonzero" fill="#86909c" stroke="none" transform="matrix(1 0 0 1 190 19 )" />
  </g>
</svg>