<?xml version="1.0" encoding="utf-8"?>
<svg version="1.1" xmlns:xlink="http://www.w3.org/1999/xlink" width="12px" height="11px" xmlns="http://www.w3.org/2000/svg">
  <g transform="matrix(1 0 0 1 -1330 -24 )">
    <path d="M 0 5.798642818744367  C 0 5.798642818744367  0 0.8461537116613145  0 0.8461537116613145  C 0 0.37883547024849135  0.4029441475868226 0  0.9000000000000001 0  C 0.9000000000000001 0  4.4324180603027346 0  4.4324180603027346 0  C 4.4324180603027346 0  4.6087434768676765 0.16857475500840408  4.6087434768676765 0.16857475500840408  C 4.95322551727295 0.497914989789327  5.480846214294434 0.8627451138618666  6 0.8627451138618666  C 6.519153785705566 0.8627451138618666  7.046774482727051 0.497914989789327  7.391256523132325 0.16857475500840408  C 7.391256523132325 0.16857475500840408  7.567581939697266 0  7.567581939697266 0  C 7.567581939697266 0  11.100000000000001 0  11.100000000000001 0  C 11.597055816650391 0  12 0.3788354030022254  12 0.8461538461538463  C 12 0.8461538461538463  12 5.798642818744367  12 5.798642818744367  C 12 6.265961329142253  11.597055816650391 6.6447966648982115  11.100000000000001 6.6447966648982115  C 11.100000000000001 6.6447966648982115  10.5 6.6447966648982115  10.5 6.6447966648982115  C 10.5 6.6447966648982115  10.5 10.153846153846155  10.5 10.153846153846155  C 10.5 10.621163588303785  10.09705638885498 11  9.600000000000001 11  C 9.600000000000001 11  2.400000286102295 11  2.400000286102295 11  C 1.9029441833496095 11  1.5 10.621163588303785  1.5 10.153846153846155  C 1.5 10.153846153846155  1.5 6.6447966648982115  1.5 6.6447966648982115  C 1.5 6.6447966648982115  0.9000000000000001 6.6447966648982115  0.9000000000000001 6.6447966648982115  C 0.402943754196167 6.6447966648982115  0 6.265960791172125  0 5.798642818744367  Z M 3.9394100189208987 1.1282051282051284  C 3.9394100189208987 1.1282051282051284  1.2000000000000002 1.1282051282051284  1.2000000000000002 1.1282051282051284  L 1.2000000000000002 5.516591536693084  L 2.7 5.516591536693084  L 2.7 9.871794871794872  L 9.3 9.871794871794872  L 9.3 5.516591536693084  L 10.8 5.516591536693084  L 10.8 1.1282051282051284  C 10.8 1.1282051282051284  8.060589981079103 1.1282051282051284  8.060589981079103 1.1282051282051284  C 7.628483963012696 1.498300197796944  6.890291976928712 1.990950242066995  6 1.990950242066995  C 5.1097077369689945 1.990950242066995  4.371516036987305 1.498300197796944  3.9394100189208987 1.1282051282051284  Z " fill-rule="nonzero" fill="#4e5969" stroke="none" transform="matrix(1 0 0 1 1330 24 )" />
  </g>
</svg>