<?xml version="1.0" encoding="utf-8"?>
<svg version="1.1" xmlns:xlink="http://www.w3.org/1999/xlink" width="13px" height="13px" xmlns="http://www.w3.org/2000/svg">
  <g transform="matrix(1 0 0 1 -1278 -24 )">
    <path d="M 3.5345410880404518 1.763508796691895  C 3.5345410880404518 1.763508796691895  3.843751144483874 0.659120535850525  3.843751144483874 0.659120535850525  C 3.952815302964166 0.2695823907852173  4.310306069472539 0  4.717802598652467 0  C 4.717802598652467 0  7.281949399802617 0  7.281949399802617 0  C 7.689445928982545 0  8.04693611874314 0.2695816040039063  8.15600085397121 0.6591201782226563  C 8.15600085397121 0.6591201782226563  8.465228212847999 1.7635685920715334  8.465228212847999 1.7635685920715334  C 8.465228212847999 1.7635685920715334  9.583998940322079 1.4770122528076173  9.583998940322079 1.4770122528076173  C 9.978559593569685 1.3759515523910522  10.392623549707633 1.5483174562454225  10.596371237549818 1.8984400749206545  C 10.596371237549818 1.8984400749206545  11.878444638124892 4.1015639305114755  11.878444638124892 4.1015639305114755  C 12.082193479462635 4.451687335968018  12.025617982841947 4.893635845184327  11.740122064822412 5.1821125030517585  C 11.740122064822412 5.1821125030517585  10.930685394564208 6.000001144409181  10.930685394564208 6.000001144409181  C 10.930685394564208 6.000001144409181  11.740124371813529 6.817892074584963  11.740124371813529 6.817892074584963  C 12.02562028983306 7.106369590759278  12.082193479462635 7.548317527770996  11.87844579162045 7.89843978881836  C 11.87844579162045 7.89843978881836  10.596372391045374 10.10156364440918  10.596372391045374 10.10156364440918  C 10.392623549707633 10.451686477661134  9.978560170317463 10.624052810668946  9.58399951706986 10.522991180419922  C 9.58399951706986 10.522991180419922  8.46522705935244 10.236434555053712  8.46522705935244 10.236434555053712  C 8.46522705935244 10.236434555053712  8.15600085397121 11.340879821777344  8.15600085397121 11.340879821777344  C 8.046936695490919 11.730417251586916  7.689447082478104 12  7.281949976550396 12  C 7.281949976550396 12  4.717802598652467 12  4.717802598652467 12  C 4.31030520435087 12  3.9528150145902767 11.730417251586916  3.843751144483874 11.340879821777344  C 3.843751144483874 11.340879821777344  3.5345416647882306 10.236494064331055  3.5345416647882306 10.236494064331055  C 3.5345416647882306 10.236494064331055  2.4160001945562506 10.522991180419922  2.4160001945562506 10.522991180419922  C 2.021439685495591 10.624052810668946  1.6073754409837546 10.451686477661134  1.4036271763937902 10.10156364440918  C 1.4036271763937902 10.10156364440918  0.12155383890050339 7.89843921661377  0.12155383890050339 7.89843921661377  C -0.08219428150251638 7.548316955566406  -0.025621263094938118 7.1063690185546875  0.2598753938826862 6.8178915023803714  C 0.2598753938826862 6.8178915023803714  1.0693141007814835 6.000001144409181  1.0693141007814835 6.000001144409181  C 1.0693141007814835 6.000001144409181  0.25987660144834823 5.182111358642579  0.25987660144834823 5.182111358642579  C -0.025618956103822674 4.893634700775147  -0.08219399312862698 4.451686477661133  0.12155484820911641 4.10156307220459  C 0.12155484820911641 4.10156307220459  1.4036284740762925 1.8984392166137698  1.4036284740762925 1.8984392166137698  C 1.6073768107597295 1.5483167409896852  2.0214409831780933 1.3759507656097414  2.416001492238753 1.47701153755188  C 2.416001492238753 1.47701153755188  3.5345410880404518 1.763508796691895  3.5345410880404518 1.763508796691895  Z M 7.052113102930926 1.2000000000000002  L 4.947638318776379 1.2000000000000002  C 4.947638318776379 1.2000000000000002  4.620479006332786 2.3684964179992676  4.620479006332786 2.3684964179992676  C 4.488120005063845 2.8412358283996584  3.9984992061547446 3.1216904640197756  3.5196658977016693 2.999044418334961  C 3.5196658977016693 2.999044418334961  2.33619214390703 2.6959150314331057  2.33619214390703 2.6959150314331057  L 1.2839546076428114 4.504086971282959  C 1.2839546076428114 4.504086971282959  2.140377765950176 5.369453430175781  2.140377765950176 5.369453430175781  C 2.486852505695144 5.7195456504821784  2.4868527940690335 6.280456924438477  2.140377765950176 6.63054943084717  C 2.140377765950176 6.63054943084717  1.2839535983341985 7.495915603637696  1.2839535983341985 7.495915603637696  L 2.336190990411472 9.304087829589845  C 2.336190990411472 9.304087829589845  3.5196676279450063 9.000957870483399  3.5196676279450063 9.000957870483399  C 3.9985038201369756 8.87831153869629  4.488121735307182 9.158770179748537  4.620480159828345 9.631506729125977  C 4.620480159828345 9.631506729125977  4.947638318776379 10.8  4.947638318776379 10.8  L 7.052113102930926 10.8  C 7.052113102930926 10.8  7.379288852686217 9.631446075439454  7.379288852686217 9.631446075439454  C 7.511648430702937 9.158705520629884  8.001270383107595 8.878253173828126  8.480101961317335 9.000898933410646  C 8.480101961317335 9.000898933410646  9.663809297962416 9.304087829589845  9.663809297962416 9.304087829589845  L 10.716045248170243 7.495916175842286  C 10.716045248170243 7.495916175842286  9.859622089862878 6.63054943084717  9.859622089862878 6.63054943084717  C 9.513147782678747 6.280456924438477  9.513146629183188 5.719545364379883  9.859622089862878 5.369452857971192  C 9.859622089862878 5.369452857971192  10.716044094674684 4.504088115692139  10.716044094674684 4.504088115692139  L 9.66380814446686 2.695916175842285  C 9.66380814446686 2.695916175842285  8.480101961317335 2.9991044998168945  8.480101961317335 2.9991044998168945  C 8.001267499368701 3.121750688552856  7.511648430702936 2.84129433631897  7.379289429433996 2.3685562133789064  C 7.379289429433996 2.3685562133789064  7.052113102930926 1.2000000000000002  7.052113102930926 1.2000000000000002  Z M 7.209403757184955 6  C 7.209403757184955 5.337258338928223  6.667879695411808 4.800000000000001  5.999875999227542 4.800000000000001  C 5.331872303043276 4.800000000000001  4.790348241270129 5.337258338928223  4.790348241270129 6  C 4.790348241270129 6.662741661071777  5.331872303043276 7.200000000000001  5.999875999227542 7.200000000000001  C 6.667879695411808 7.200000000000001  7.209403757184955 6.662741661071777  7.209403757184955 6  Z M 5.999875999227542 8.4  C 4.66386860685901 8.4  3.580820483312716 7.325483322143555  3.580820483312716 6  C 3.580820483312716 4.674516677856445  4.66386860685901 3.6000000000000005  5.999875999227542 3.6000000000000005  C 7.335883391596074 3.6000000000000005  8.418931515142367 4.674516677856445  8.418931515142367 6  C 8.418931515142367 7.325483322143555  7.335883391596074 8.4  5.999875999227542 8.4  Z " fill-rule="nonzero" fill="#4e5969" stroke="none" transform="matrix(1 0 0 1 1278 24 )" />
  </g>
</svg>