<?xml version="1.0" encoding="utf-8"?>
<svg version="1.1" xmlns:xlink="http://www.w3.org/1999/xlink" width="11px" height="11px" xmlns="http://www.w3.org/2000/svg">
  <g transform="matrix(1 0 0 1 -1110 -24 )">
    <path d="M 7.826303618092154 7.826303618092154  C 9.359989721295946 6.292617514888361  9.359989721295946 3.806021588002381  7.826303618092154 2.272335484798589  C 6.292617514888362 0.7386493815947965  3.8060215880023804 0.7386493815947965  2.2723354847985884 2.272335484798589  C 0.7386493815947964 3.806021588002381  0.7386493815947964 6.292617514888361  2.2723354847985884 7.826303618092154  C 3.8060215880023804 9.359989721295946  6.292617514888362 9.359989721295946  7.826303618092154 7.826303618092154  Z M 1.478911389321627 8.619727446046532  C -0.4929705522814034 6.647845771966085  -0.4929705522814034 3.450793330924658  1.478911389321627 1.478911389321627  C 3.450793330924657 -0.4929705522814035  6.647845771966085 -0.4929705522814035  8.619727446046532 1.478911389321627  C 10.457517705617372 3.3167011138472993  10.582491415443505 6.21869834990125  8.99464857552493 8.201224747570555  C 8.99464857552493 8.201224747570555  11 10.206575101955288  11 10.206575101955288  L 10.206575101955286 11  C 10.206575101955286 11  8.201224747570553 8.994648575524934  8.201224747570553 8.994648575524934  C 6.218698349901249 10.582491415443505  3.3167011138472993 10.457517705617372  1.478911389321627 8.619727446046532  Z " fill-rule="nonzero" fill="#4e5969" stroke="none" transform="matrix(1 0 0 1 1110 24 )" />
  </g>
</svg>