<?xml version="1.0" encoding="utf-8"?>
<svg version="1.1" xmlns:xlink="http://www.w3.org/1999/xlink" width="13px" height="15px" xmlns="http://www.w3.org/2000/svg">
  <g transform="matrix(1 0 0 1 -31 -545 )">
    <path d="M 0 13.5  C 0 13.5  0 1.5000003576278687  0 1.5000003576278687  C 0 0.6715737283229828  0.6847404732423671 0  1.5294117647058822 0  C 1.5294117647058822 0  9.875574785120348 0  9.875574785120348 0  L 13 3.064339756965637  C 13 3.064339756965637  13 13.5  13 13.5  C 13 14.328426361083984  12.315258979797363 15  11.470588235294118 15  C 11.470588235294118 15  1.5294117647058822 15  1.5294117647058822 15  C 0.6847406555624569 15  0 14.328426361083984  0 13.5  Z M 11.470588235294118 3.685659885406494  L 9.242072273703181 1.5  L 1.5294117647058822 1.5000003576278687  L 1.5294117647058822 13.5  L 11.470588235294118 13.5  L 11.470588235294118 3.685659885406494  Z M 9.558823529411764 5.625  L 9.558823529411764 7.125  L 3.4411764705882355 7.125  L 3.4411764705882355 5.625  L 9.558823529411764 5.625  Z M 7.264705882352941 8.625  L 7.264705882352941 10.125  L 3.4411764705882355 10.125  L 3.4411764705882355 8.625  L 7.264705882352941 8.625  Z " fill-rule="nonzero" fill="#ffffff" stroke="none" transform="matrix(1 0 0 1 31 545 )" />
  </g>
</svg>