<?xml version="1.0" encoding="utf-8"?>
<svg version="1.1" xmlns:xlink="http://www.w3.org/1999/xlink" width="16px" height="15px" xmlns="http://www.w3.org/2000/svg">
  <g transform="matrix(1 0 0 1 -23 -717 )">
    <path d="M 14.4 7.5  C 14.4 4.186291337013245  11.534622192382812 1.5  8 1.5  C 4.465377426147461 1.5  1.6 4.186291337013245  1.6 7.5  C 1.6 10.813708305358887  4.465377426147461 13.5  8 13.5  C 11.534622192382812 13.5  14.4 10.813708305358887  14.4 7.5  Z M 8 15  C 3.581721878051758 15  0 11.642136096954346  0 7.5  C 0 3.357864260673523  3.581721878051758 0  8 0  C 12.41827850341797 0  16 3.357864260673523  16 7.5  C 16 11.642136096954346  12.41827850341797 15  8 15  Z M 7.2 3.7500228881835933  L 8.8 3.7500228881835933  L 8.8 5.250022888183594  L 7.2 5.250022888183594  L 7.2 3.7500228881835933  Z M 8.8 11.250022172927856  L 7.2 11.250022172927856  L 7.2 6.000022888183594  L 8.8 6.000022888183594  L 8.8 11.250022172927856  Z " fill-rule="nonzero" fill="#ffffff" stroke="none" transform="matrix(1 0 0 1 23 717 )" />
  </g>
</svg>