<?xml version="1.0" encoding="utf-8"?>
<svg version="1.1" xmlns:xlink="http://www.w3.org/1999/xlink" width="16px" height="14px" xmlns="http://www.w3.org/2000/svg">
  <g transform="matrix(1 0 0 1 -40 -1 )">
    <path d="M 8.585365853658537 0.39597970909542507  C 8.585365853658537 0.39597970909542507  8.585365853658537 3.643719726138645  8.585365853658537 3.643719726138645  C 3.84379912585747 3.643719726138645  0 7.529685762193469  0 12.323268254597982  C 0 12.620959619681042  0.03229434315751238 13.02114772134357  0.09688307599323552 13.523832745022244  C 0.11058484781079177 13.630340581138928  0.20832317631419112 13.705628842322364  0.3152042481957412 13.691991170247396  C 0.37304396164126513 13.684611031164726  0.4245392636554997 13.651836388640934  0.45558315370141006 13.602646297878689  C 0.45558315370141006 13.602646297878689  0.579413809427401 13.409787707858616  0.579413809427401 13.409787707858616  C 0.6982556785025248 13.228187325927946  0.8021309026857701 13.08036525381936  0.8910394063810023 12.966321097479927  C 2.2904557949159203 11.171270370483398  4.577817032976848 10.156774222436878  7.5911619605087655 10.115282694498697  C 7.5911619605087655 10.115282694498697  8.585365853658537 10.113957934909397  8.585365853658537 10.113957934909397  C 8.585365853658537 10.113957934909397  8.585365853658537 13.604020012749567  8.585365853658537 13.604020012749567  C 8.585365853658537 13.822713616821503  8.765092035619224 14  8.986795564977134 14  C 9.093261404735285 14  9.195366545421322 13.958281118008825  9.270649235423019 13.884020487467447  C 9.270649235423019 13.884020487467447  15.823635194359756 7.419999970330132  15.823635194359756 7.419999970330132  C 16.058787322625882 7.1880403889550095  16.058787322625882 6.81195961104499  15.823635194359756 6.5800000296698675  C 15.823635194359756 6.5800000296698675  9.270649235423019 0.11597979068756104  9.270649235423019 0.11597979068756104  C 9.113881157665718 -0.03865993022918701  8.85970997228855 -0.03865993022918701  8.70294189453125 0.11597979068756104  C 8.627659204529554 0.1902404096391466  8.585365853658537 0.29095934165848625  8.585365853658537 0.39597970909542507  Z " fill-rule="nonzero" fill="#4e5969" stroke="none" transform="matrix(1 0 0 1 40 1 )" />
  </g>
</svg>