<?xml version="1.0" encoding="utf-8"?>
<svg version="1.1" xmlns:xlink="http://www.w3.org/1999/xlink" width="6px" height="6px" xmlns="http://www.w3.org/2000/svg">
  <g transform="matrix(1 0 0 1 -1 -8 )">
    <path d="M 2.617277859842484 0  C 2.617277859842484 0  3.4264265393884066 0  3.4264265393884066 0  C 3.5381328105144423 0  3.6286519798974424 0.09154111341417061  3.6286519798974424 0.20437746196312134  C 3.6286519798974424 0.20437746196312134  3.6277877686132163 2.2932921921682516  3.6277877686132163 2.2932921921682516  C 3.6277877686132163 2.2932921921682516  5.485101277171174 1.6841500922964716  5.485101277171174 1.6841500922964716  C 5.591346126023418 1.6492858465118365  5.705391836567133 1.7078960873569988  5.739920147263145 1.8152060486864903  C 5.739920147263145 1.8152060486864903  5.990047584669316 2.592438947048989  5.990047584669316 2.592438947048989  C 6.024565782959991 2.6997489083784805  5.966413823377783 2.8150728458365597  5.86016897452554 2.849937091621195  C 5.86016897452554 2.849937091621195  3.988781167910176 3.46294478107251  3.988781167910176 3.46294478107251  C 3.988781167910176 3.46294478107251  5.227936690736301 5.185875465602374  5.227936690736301 5.185875465602374  C 5.29359509935054 5.2771578856614845  5.273621011522657 5.404864276836971  5.183244621466295 5.471180915859617  C 5.183244621466295 5.471180915859617  4.528666303042053 5.95151159522627  4.528666303042053 5.95151159522627  C 4.438289912985691 6.017828234248915  4.3117276217141765 5.997653904711464  4.246069213099939 5.906371484652352  C 4.246069213099939 5.906371484652352  2.9653080898760447 4.124833474239226  2.9653080898760447 4.124833474239226  C 2.9653080898760447 4.124833474239226  1.6776332763783377 5.915723717506065  1.6776332763783377 5.915723717506065  C 1.6119748677640993 6.007006137565176  1.485412576492585 6.027315377323628  1.3950361864362233 5.960988524518031  C 1.3950361864362233 5.960988524518031  0.7404578077293862 5.480657845151379  0.7404578077293862 5.480657845151379  C 0.6500814176730243 5.414341206128732  0.6301073298451412 5.286510118515197  0.6957657384593794 5.195227698456086  C 0.6957657384593794 5.195227698456086  1.965045257761143 3.4282791712947502  1.965045257761143 3.4282791712947502  C 1.965045257761143 3.4282791712947502  0.13983099533316262 2.8296115722191275  0.13983099533316262 2.8296115722191275  C 0.033586146480919114 2.794747326434492  -0.024565819694697594 2.679548085414462  0.009952378595977366 2.5722381240849708  C 0.009952378595977366 2.5722381240849708  0.25995636384066684 1.7950052257224722  0.25995636384066684 1.7950052257224722  C 0.2944745621313418 1.6876952643929808  0.40853035493909773 1.6289603271097688  0.5147752037913412 1.6638245728944039  C 0.5147752037913412 1.6638245728944039  2.4140647492943317 2.2861844951994303  2.4140647492943317 2.2861844951994303  C 2.4140647492943317 2.2861844951994303  2.415052419333448 0.20437746196312134  2.415052419333448 0.20437746196312134  C 2.415052419333448 0.09154111341417061  2.5055614763111103 0  2.617277859842484 0  Z " fill-rule="nonzero" fill="#f53f3f" stroke="none" transform="matrix(1 0 0 1 1 8 )" />
  </g>
</svg>