<?xml version="1.0" encoding="utf-8"?>
<svg version="1.1" xmlns:xlink="http://www.w3.org/1999/xlink" width="14px" height="14px" xmlns="http://www.w3.org/2000/svg">
  <g transform="matrix(1 0 0 1 -1 -1 )">
    <path d="M 6.654801397530579 0.38645239800787795  C 6.841986914804944 0.08725048096566798  7.3472689891500425 -0.14212382473546317  7.885807528063333 0.10427289065130761  C 7.885807528063333 0.10427289065130761  8.007329720432168 0.16149184818016304  8.007329720432168 0.16149184818016304  C 8.817362493660541 0.5538417004505973  9.993733874542443 1.3458804113139793  9.993733874542443 2.617434085660079  C 9.993733874542443 3.121587398248144  9.770949078359877 3.7902212583405896  9.325379287461251 4.623335426582969  C 9.325379287461251 4.623335426582969  11.849626239711199 4.623335426582969  11.849626239711199 4.623335426582969  C 13.837404086767712 4.623335426582969  14.29394376642042 6.386138336476551  13.837404563248096 7.707023680771741  C 13.837404563248096 7.707023680771741  11.849626239711199 12.964315215128586  11.849626239711199 12.964315215128586  C 11.681660174167646 13.575791831247543  11.12226940436866 13.999999999999998  10.483900045487992 13.999999999999998  C 10.483900045487992 13.999999999999998  2.3266864319805642 13.999999999999998  2.3266864319805642 13.999999999999998  L 2.3266864319805642 4.623335426582969  L 3.690310712404427 4.623335426582969  C 3.690310712404427 4.623335426582969  6.654801397530579 0.38645239800787795  6.654801397530579 0.38645239800787795  Z M 0 4.62436592726962  L 1.3323357195470948 4.62436592726962  L 1.3323357195470948 13.994335916324967  L 0 13.994335916324967  L 0 4.62436592726962  Z " fill-rule="nonzero" fill="#4e5969" stroke="none" transform="matrix(1 0 0 1 1 1 )" />
  </g>
</svg>