<?xml version="1.0" encoding="utf-8"?>
<svg version="1.1" xmlns:xlink="http://www.w3.org/1999/xlink" width="11px" height="12px" xmlns="http://www.w3.org/2000/svg">
  <g transform="matrix(1 0 0 1 -14 -10 )">
    <path d="M 2.9117647875551556 0  C 2.9117647875551556 0  3.5588237063695036 0  3.5588237063695036 0  C 3.7375040756430087 0  3.882353050073541 0.15350237325934346  3.882353050073541 0.34285714373296616  C 3.882353050073541 0.34285714373296616  3.882353050073541 1.028571400545082  3.882353050073541 1.028571400545082  L 7.117647412739007 1.028571400545082  C 7.117647412739007 1.028571400545082  7.117647412739007 0.34285714373296616  7.117647412739007 0.34285714373296616  C 7.117647412739007 0.15350237325934346  7.262496155763266 0  7.44117652503677 0  C 7.44117652503677 0  8.088235212444843 0  8.088235212444843 0  C 8.266915581718349 0  8.411765250367704 0.15350237325934346  8.411765250367704 0.34285714373296616  C 8.411765250367704 0.34285714373296616  8.411765250367704 1.028571400545082  8.411765250367704 1.028571400545082  C 8.411765250367704 1.028571400545082  10.352941775404474 1.028571400545082  10.352941775404474 1.028571400545082  C 10.710302513951484 1.028571400545082  11 1.3526320225134707  11 1.7523809636693422  C 11 1.7523809636693422  11 11.276190314260475  11 11.276190314260475  C 11 11.675939255416345  10.710302513951484 12  10.352941775404474 12  C 10.352941775404474 12  0.6470588609627796 12  0.6470588609627796 12  C 0.2896981224157704 12  0 11.675939255416345  0 11.276190314260475  C 0 11.276190314260475  0 1.7523809636693422  0 1.7523809636693422  C 0 1.3526320225134707  0.2896981224157704 1.028571400545082  0.6470588609627796 1.028571400545082  C 0.6470588609627796 1.028571400545082  2.5879119378794484 1.028571400545082  2.5879119378794484 1.028571400545082  C 2.5879119378794484 1.028571400545082  2.5882354438511186 0.34285714373296616  2.5882354438511186 0.34285714373296616  C 2.5882354438511186 0.15350237325934346  2.733084418281651 0  2.9117647875551556 0  Z M 9.705882625183852 10.628571792913935  L 9.705882625183852 6.171428403270493  L 1.2941177219255593 6.171428403270493  L 1.2941177219255593 10.628571792913935  L 9.705882625183852 10.628571792913935  Z M 2.5882354438511186 3.0857142016352466  C 2.5882354438511186 3.0857142016352466  2.5879117064731743 2.399999852861681  2.5879117064731743 2.399999852861681  L 1.2941177219255593 2.399999852861681  L 1.2941177219255593 4.799999705723362  L 9.705882625183852 4.799999705723362  L 9.705882625183852 2.399999852861681  L 8.411765250367704 2.399999852861681  C 8.411765250367704 2.399999852861681  8.411765250367704 3.0857142016352466  8.411765250367704 3.0857142016352466  C 8.411765250367704 3.275068972108869  8.266915581718349 3.428571253406763  8.088235212444843 3.428571253406763  C 8.088235212444843 3.428571253406763  7.441176987849319 3.428571253406763  7.441176987849319 3.428571253406763  C 7.262496618575815 3.428571253406763  7.117647412739007 3.275068972108869  7.117647412739007 3.0857142016352466  C 7.117647412739007 3.0857142016352466  7.117647412739007 2.399999852861681  7.117647412739007 2.399999852861681  L 3.882353050073541 2.399999852861681  C 3.882353050073541 2.399999852861681  3.882353050073541 3.0857142016352466  3.882353050073541 3.0857142016352466  C 3.882353050073541 3.275068972108869  3.7375038442367345 3.428571253406763  3.5588234749632295 3.428571253406763  C 3.5588234749632295 3.428571253406763  2.9117647875551556 3.428571253406763  2.9117647875551556 3.428571253406763  C 2.733084418281651 3.428571253406763  2.5882354438511186 3.275068972108869  2.5882354438511186 3.0857142016352466  Z " fill-rule="nonzero" fill="#4e5969" stroke="none" transform="matrix(1 0 0 1 14 10 )" />
  </g>
</svg>