<?xml version="1.0" encoding="utf-8"?>
<svg version="1.1" xmlns:xlink="http://www.w3.org/1999/xlink" width="1099px" height="167px" xmlns="http://www.w3.org/2000/svg">
  <g transform="matrix(1 0 0 1 -46 -7 )">
    <path d="M 0 131.0415376377651  C 26.398613618742473 129.9381048004427  41.43877755380304 127.29663647553967  66.65095824101424 119.33649438053799  C 108.96968516446407 105.975370664915  143.57928648525782 65.33580911972228  164.92053889110062 62.00006624540667  C 188.74358870322683 58.27640624949118  235.89313497473287 81.99987792981244  263.190119541187 78.99988100017538  C 281.05743719270185 78.99988100017538  329.3313017880156 78.33782380117445  359.97076715112064 54.00013546813498  C 385.7790610167839 33.4999657142804  403.6462574986178 0  420.5208319536831 0  C 454.2701020334948 0  486.53019673379157 110.99964225619573  519.783034630538 110.99964225619573  C 536.6576090856033 110.99964225619573  562.4657817815856 63.4996679821156  583.3108443437253 63.4996679821156  C 604.6805470120121 63.4996679821156  625.7132408251832 105.9995405620532  647.3349650702966 105.9995405620532  C 686.04722411427 105.9995405620532  716.3221959307108 7.000126350087435  743.4244608197947 4.500128908723227  C 772.9016514565182 4.500128907474908  810.1249774603388 99.36256157589635  839.774229044085 99.36256157589635  C 865.7118109593775 99.36256157589635  889.6479272300887 40.801929318965584  922.2912664851848 38.99996008528166  C 958.5219704622369 36.99996213219029  981.3522770779136 157.0000071641802  1032.473523153304 138.13538718905016  C 1057.9741861316656 129.9689688883844  1070.0500966427705 157.4249077379194  1096 164  " stroke-width="2" stroke="#21ccff" fill="none" transform="matrix(1 0 0 1 47 8 )" />
  </g>
</svg>