<?xml version="1.0" encoding="utf-8"?>
<svg version="1.1" xmlns:xlink="http://www.w3.org/1999/xlink" width="1103px" height="103px" xmlns="http://www.w3.org/2000/svg">
  <g transform="matrix(1 0 0 1 -46 -29 )">
    <path d="M 0 0  C 0 0  33.889085727269226 66.37481541338354  69.00810279655266 69.59743808754656  C 105.84257552857528 69.59743808754656  126.6842760227467 16.08046524266896  165.40208822086947 16.08046524266896  C 194.66791811087725 16.08046524266896  234.36639524263234 91.65993227347681  263.14767001301703 92.28553776120214  C 282.0045678007384 92.28553776120214  315.24398591442423 40.57776133670895  358.1900742132703 34.797913104885644  C 396.50437316202857 29.641428665056512  420.45300679773425 57.4000624374542  454.5840899251215 57.4000624374542  C 485.95549406513004 57.4000624374542  530.1037551806827 14.815308221823578  553.9391361532606 16.08046524266896  C 581.7117754519643 17.5546077769149  623.9077020979788 71.55971157500075  647.372060773755 69.59743808754656  C 669.0647198353502 67.7833279822666  719.6802781783381 8.41844415474574  743.7660764856063 8.41844415474574  C 763.8448339874155 7.767722277755129  819.4227019718726 75.34391161070536  839.7681715018971 75.34391161070536  C 860.1136410319215 75.34391161070536  905.270658769293 24.519033159215052  936.5539261841021 40.897399265622404  C 957.2161711437882 51.71512538964485  1007.4942373835623 100  1032.9480024710222 100  C 1052.1550241567868 100  1091.853501288542 70.85936351204445  1100 57.4000624374542  " stroke-width="2" stroke="#313ca9" fill="none" transform="matrix(1 0 0 1 47 30 )" />
  </g>
</svg>