<?xml version="1.0" encoding="utf-8"?>
<svg version="1.1" xmlns:xlink="http://www.w3.org/1999/xlink" width="1103px" height="13px" xmlns="http://www.w3.org/2000/svg">
  <g transform="matrix(1 0 0 1 -39 -258 )">
    <path d="M 0 8.8893267922711  C 0 8.8893267922711  42.131023888983876 9.043453308713111  69.00810971587143 8.768914148508161  C 91.1096640011894 8.543155218815306  140.66604965430307 6.613740293915457  165.40210186789614 6.613740293915457  C 189.32689639205108 6.613740293915457  235.45404031388597 8.739351667029123  261.79610159422947 8.739351667029123  C 288.13816287457297 8.739351667029123  332.533672139963 0.18796814513869936  357.8971119133574 0.0021856405953405043  C 378.71181198836234 -0.15027818016749142  429.1552912026967 7.725952004927514  454.5841313441308 7.295118512634586  C 479.6685752455508 6.8701200300899  526.4769524873809 5.160021917909397  550.9781159218468 4.783032162446632  C 572.1585528514876 4.457137116511645  619.7472164346854 10.462376672040604  645.3068592057762 9.971440315042239  C 673.8699823510345 9.422814666689753  716.1548840009779 0.7066720908917954  743.7661456717481 0.5318080401262724  C 767.7949543894414 0.3796319166313804  808.0146166391752 3.891229053236986  840.1601908439334 4.5746536473921235  C 858.6615531453157 4.967998143425323  907.8189734517451 4.06182862297523  936.5539936382418 4.799990632559442  C 962.9348164431025 5.4776766685778515  1010.6026258709629 9.609434774041022  1032.9480994048963 9.85551623654669  C 1059.193165982243 10.1445423099568  1074.7660013742825 9.920141756096868  1100 8.8893267922711  " stroke-width="2" stroke="#249eff" fill="none" stroke-opacity="0.30196078431372547" transform="matrix(1 0 0 1 40 259 )" />
  </g>
</svg>