<?xml version="1.0" encoding="utf-8"?>
<svg version="1.1" xmlns:xlink="http://www.w3.org/1999/xlink" width="1100px" height="12px" xmlns="http://www.w3.org/2000/svg">
  <g transform="matrix(1 0 0 1 -40 -259 )">
    <path d="M 69.00810357399224 8.768914222717285  C 91.10965762789179 8.543155297636986  140.66604168472492 6.613739967346191  165.40209236791577 6.613739967346191  C 189.32688659477404 6.613739967346191  235.45402149128978 8.739351272583008  261.7960811618393 8.739351272583008  C 288.13814083238884 8.739351272583008  332.53365498797154 0.18796813255175948  357.89709439988013 0.0021856403909623623  C 378.71179333975226 -0.15027816826477647  429.1552792905591 7.725951820611954  454.5841186414543 7.29511833190918  C 479.6685616104439 6.870119869709015  526.4769298066846 5.1600216925144196  550.9780924624358 4.783031940460205  C 572.1585279697822 4.457136899232864  619.7472072945015 10.462376654148102  645.3068483949877 9.971440315246582  C 673.8699699490331 9.422814667224884  716.1548401818118 0.7066720575094223  743.7660999961669 0.5318080186843872  C 767.7949075077815 0.379631906747818  808.0145897980144 3.891229033470154  840.1601636548004 4.574653625488281  C 858.661526212939 4.967998117208481  907.8189693318213 4.061828672885895  936.5539877463619 4.799990653991699  C 962.9348104921013 5.477676689624786  1010.6025787680198 9.609434023499489  1032.9480514049956 9.855515480041504  C 1059.1931163573456 10.144541531801224  1074.7660016715793 9.920140981674194  1100 8.889326095581055  C 1100 8.889326095581055  1100 12  1100 12  L 0 12  C 0 12  0 8.889326095581055  0 8.889326095581055  C 0 8.889326095581055  42.13101951061456 9.043453365564346  69.00810357399224 8.768914222717285  Z " fill-rule="nonzero" fill="#0487ff" stroke="none" fill-opacity="0.14901960784313725" transform="matrix(1 0 0 1 40 259 )" />
  </g>
</svg>