<?xml version="1.0" encoding="utf-8"?>
<svg version="1.1" xmlns:xlink="http://www.w3.org/1999/xlink" width="1103px" height="72px" xmlns="http://www.w3.org/2000/svg">
  <g transform="matrix(1 0 0 1 -46 -99 )">
    <path d="M 0 61.09258698959308  C 0 61.09258698959308  42.13102585153109 62.21858848691727  69.00811154784083 60.21288898605101  C 91.10966575492328 58.56356293459589  140.66604305396248 44.46784074281935  165.40209546872782 44.46784074281935  C 189.3268906433078 44.46784074281935  235.45404081636255 59.99691304269854  261.79610211937216 59.99691304269854  C 288.13816342238187 59.99691304269854  332.8266847461453 45.82511113376353  358.19012392318814 44.46784074281935  C 379.00482344736747 43.353986445168566  429.15527515514646 52.59332116997524  454.58411542066085 49.44578276468369  C 479.6685600853007 46.3408730757196  526.4769438157869 33.84741664885218  550.9781069181337 31.093244154200107  C 572.1585433911894 28.712354111492658  621.8124559731488 44.833398313101476  647.3720984156065 41.2467667402314  C 675.9352206874846 37.23867480963626  716.1548898788716 1.31259828601083  743.7661505257655 0.03509473558359583  C 767.7949589641095 -1.0766577689006478  808.0146281554964 24.578000387444362  840.1602026359245 29.570892553421718  C 858.6615640588482 32.44454782016751  907.8189924452348 25.824351517546337  936.5540122953386 31.21713833144443  C 962.9348354112096 36.16810613505464  1010.6025914898906 66.35346792614781  1032.9480644054975 68.15126415343654  C 1059.193130257324 70.2628006063232  1074.766001108606 68.62340763008487  1100 61.09258698959308  " stroke-width="2" stroke="#249eff" fill="none" transform="matrix(1 0 0 1 47 100 )" />
  </g>
</svg>