<?xml version="1.0" encoding="utf-8"?>
<svg version="1.1" xmlns:xlink="http://www.w3.org/1999/xlink" width="21px" height="11px" xmlns="http://www.w3.org/2000/svg">
  <g transform="matrix(1 0 0 1 -6 -4 )">
    <path d="M 5.066349532625734 0.0003731387808947936  C 5.106875972280507 -0.000124379583526786  5.147406650827003 -0.000124379583526786  5.187933090481775 0.0003731387808947936  C 5.187933090481775 0.0003731387808947936  15.68756609465728 0.12927037632951116  15.68756609465728 0.12927037632951116  C 18.60688067484284 0.16510900035008583  20.965015099849307 2.6065073205346754  20.999631564976195 5.628898229527892  C 21.033205941111845 8.560310552567147  18.765088736917562 10.96486766255591  15.93364998764116 10.999627496215588  C 15.89312354798639 11.00012496249981  15.852592771994107 11.00012496249981  15.812066429785121 10.999627496215588  C 15.812066429785121 10.999627496215588  5.312434385075822 10.870731253374545  5.312434385075822 10.870731253374545  C 2.393119804890262 10.834892640994715  0.03498436736116945 8.39349367280875  0.0003679846884095654 5.371102763815533  C -0.03320638020349972 2.4396904407762783  2.2349107833493322 0.03513296079982828  5.066349532625734 0.0003731387808947936  Z " fill-rule="nonzero" fill="#307af2" stroke="none" transform="matrix(1 0 0 1 6 4 )" />
  </g>
</svg>