<?xml version="1.0" encoding="utf-8"?>
<svg version="1.1" xmlns:xlink="http://www.w3.org/1999/xlink" width="21px" height="11px" xmlns="http://www.w3.org/2000/svg">
  <g transform="matrix(1 0 0 1 1 -4 )">
    <path d="M 0.00173023237405639 5.509293707657105  C 0.035584883592928884 2.553416130194264  2.3418303722813847 0.1657464485455848  5.196905979644498 0.13069652000243098  C 5.196905979644498 0.13069652000243098  15.812071272491618 0.0003809773312747393  15.812071272491618 0.0003809773312747393  C 18.64351209161319 -0.03437880610527134  20.966064839762858 2.3138185655437296  20.999639240442132 5.245226653099421  C 21.000119741370717 5.287183955899701  21.000119741370717 5.329145647253852  20.999639240442132 5.371102950054133  C 20.999639240442132 5.371102950054133  20.998269121695767 5.490706292342896  20.998269121695767 5.490706292342896  C 20.964414429249803 8.44658362147024  18.658170347318798 10.834255029826673  15.803094500088955 10.869305001052492  C 15.803094500088955 10.869305001052492  5.187929207241837 10.999619550017885  5.187929207241837 10.999619550017885  C 2.3564883881202645 11.034379333454432  0.033934810363176436 8.68618143445627  0.00036041343181889577 5.754773346900579  C -0.00012013780084609646 5.712816044100299  -0.00012013780084609646 5.670855346088138  0.00036041343181889577 5.628898043287858  C 0.00036041343181889577 5.628898043287858  0.00173023237405639 5.509293707657105  0.00173023237405639 5.509293707657105  Z " fill-rule="nonzero" fill="#12d2ac" stroke="none" transform="matrix(1 0 0 1 -1 4 )" />
  </g>
</svg>