<?xml version="1.0" encoding="utf-8"?>
<svg version="1.1" xmlns:xlink="http://www.w3.org/1999/xlink" width="117px" height="50px" xmlns="http://www.w3.org/2000/svg">
  <g transform="matrix(1 0 0 1 0.5 -0.5 )">
    <path d="M 0 45.371590309954705  C 0 45.371590309954705  4.989555942158818 48.190479968456515  8.248699509220197 38.36456558552194  C 11.507843076281576 28.53865120258737  11.82580786632664 13.65181176205899  21.285273102884663 26.186617506311293  C 25.621048363903355 31.931984657936912  31.75954940218508 21.250077917220743  36.8371037678062 21.981070173547625  C 42.8373720182443 22.844901318245746  47.17177653056828 37.119812985684014  51.63752264801406 30.171673551518868  C 57.73600652650599 20.68319965930695  60.374621198861135 19.212566416314313  65.82645539249823 16.90308566803628  C 72.56898271195622 14.046847373881242  72.11783100032562 3.159582056897752  78.76273969595952 4.334720124589636  C 83.18323761485907 5.116475777423129  85.91708120766675 23.240639884421167  93.52782402073994 24.4535037913221  C 99.55761531085507 25.414423957784127  102.34895159150264 12.697187383124168  103.77791578764177 7.95031409567975  C 107.32467811618955 -3.831668488522793  110.55726561967947 0.6253434089904136  113 1.8332608507034627  " stroke-width="3" stroke="#165dff" fill="none" transform="matrix(1 0 0 1 1 2 )" />
  </g>
</svg>