<?xml version="1.0" encoding="utf-8"?>
<svg version="1.1" xmlns:xlink="http://www.w3.org/1999/xlink" width="116px" height="45px" xmlns="http://www.w3.org/2000/svg">
  <g transform="matrix(1 0 0 1 -0.5 0.5 )">
    <path d="M 0 38.29396324099098  C 3.2556313136680135 28.308169566855813  11.226211943605664 14.371659851456615  20.675483526765838 27.110421765041  C 25.006586350896754 32.949272860459615  29.92787561573335 40.03769786257886  34.99995803830721 40.780584230665724  C 43.999962942920654 42.098776669525954  47.99996512274885 37.29931484512109  50.995022907269565 31.160323196984713  C 52.999967847534094 27.850155084357077  55.49996920992672 19.395643719462967  60.499971934711965 16.41169853185328  C 67.23523323071792 13.508985850056249  70.36223335932779 23.671950937706026  76.99998092650328 24.866209896747396  C 81.41571523977838 25.660685642062475  83.39744725769438 18.16304507702486  90.99998855590198 19.395643719462967  C 97.02328199565451 20.372199197726726  100.7930994949883 10.739623464426101  101.49999427795099 8.454511364894113  C 103.49999536786508 1.9892967917397917  106.99999727521475 3.9785935834795834  112 0  " stroke-width="3" stroke="#165dff" fill="none" transform="matrix(1 0 0 1 2 1 )" />
  </g>
</svg>