<?xml version="1.0" encoding="utf-8"?>
<svg version="1.1" xmlns:xlink="http://www.w3.org/1999/xlink" width="117px" height="43px" xmlns="http://www.w3.org/2000/svg">
  <g transform="matrix(1 0 0 1 0 -1 )">
    <path d="M 0 27.96807609279769  C 0 27.96807609279769  2.7667686591183744 28.80586830380855  3.428448377724839 30.170165803135273  C 5.793333990637855 35.04625213060798  8.135140287265175 40.1105182389692  9.656346565664371 36.8555759237112  C 12.576591464449274 30.60709474604061  13.67866198419445 22.864176111782676  18.30928102785347 24.6355351405234  C 22.70665969181868 26.317672314265707  22.70665969181868 40.00000000000029  27.329411066348136 40  C 31.417176235172498 39.99999999999974  34.097329877129546 27.68699874724649  36.93907564084041 27.955968081390054  C 41.609203603820795 28.3979925579243  45.30897334948665 38.355739854834404  47.796629280809455 35.60879128654526  C 53.26096888296592 29.574894341046548  52.945669931209125 22.864174692875835  61.53641117050885 22.86417469287509  C 67.51754677572181 22.86417469287457  66.77833965997685 -0.7299079892230186  72.73228455811775 0.017384108417120615  C 76.69312163367682 0.5145170637471665  75.80918092716476 6.650358846458402  83.2163902487649 6.650358846458402  C 88.35713762710687 6.650358846458402  86.83252586027793 21.87267234122537  90.81609977476644 21.87267234122495  C 93.51159922855268 21.87267234122466  98.04532710560049 2.63140414479933  100.58344225408271 2.0507069328676035  C 104.45457619748423 1.165027418497239  103.57941720889039 9.13074032070911  106.60024404967906 9.13074032070906  C 109.62107089046772 9.130740320709005  110.20676170002051 2.4554901696663474  114 3.8220659616083337  " stroke-width="2" stroke-dasharray="2,2" stroke="#6aa1ff" fill="none" transform="matrix(1 0 0 1 1 2 )" />
  </g>
</svg>