<?xml version="1.0" encoding="utf-8"?>
<svg version="1.1" xmlns:xlink="http://www.w3.org/1999/xlink" width="115px" height="70px" xmlns="http://www.w3.org/2000/svg">
  <defs>
    <linearGradient gradientUnits="userSpaceOnUse" x1="11.053660213958718" y1="7.524374111337956" x2="11.053660213958718" y2="64.06774428564908" id="LinearGradient252">
      <stop id="Stop253" stop-color="#2f88ff" offset="0" />
      <stop id="Stop254" stop-color="#4963ff" stop-opacity="0" offset="1" />
    </linearGradient>
  </defs>
  <g>
    <path d="M 0 70  C 0 70  0 29.65941047668457  0 29.65941047668457  C 0 29.65941047668457  3.057697468051096 30.51493752002716  3.7232291407701443 31.888267517089844  C 6.101881890762143 36.7966365814209  8.45732134289858 41.89443111419678  9.98738326677462 38.61793899536133  C 12.92462805422341 32.32808876037598  14.033113558117936 24.533907175064087  18.690689598641743 26.316993713378906  C 23.113667368888855 28.0102676153183  23.11366703452133 41.78318023681672  27.763329598961803 41.783180236816406  C 31.87489150500879 41.78318023681616  34.57064804507465 29.38866040110588  37.42893695831299 29.65941047668457  C 42.126251909790966 30.104361414909363  45.847560610713025 40.128034830093384  48.34969846213736 37.36289978027344  C 53.845848513812555 31.28905487060547  53.52871496502946 24.533906936646254  62.16946648388374 24.533906936645508  C 68.18542160638948 24.533906936644986  67.44191463400676 -0.735772030428052  73.43052049962485 0.01646755449473858  C 77.41441553685722 0.5168918203562498  76.52532327465894 8.21274471282959  83.97565353207472 8.21274471282959  C 89.14632756535599 8.21274471282959  87.6128465664096 23.535839080810977  91.61961067013624 23.535839080810547  C 94.33080194926843 23.535839080810252  98.89091922015679 4.167182147502899  101.44380988144293 3.5826404094696045  C 105.33747952158858 2.691097140312195  104.45722492729745 10.709547996521046  107.49563728890767 10.709547996520996  C 110.5340496505179 10.709547996520943  111.18467969138447 3.990103602409363  115 5.365726947784424  C 115.0000000000001 5.36572694778457  115 70  115 70  C 115 70  0 70  0 70  Z " fill-rule="nonzero" fill="url(#LinearGradient252)" stroke="none" />
  </g>
</svg>